/* XPM */
static char *_4f00150902440338a855174591c590b[] = {
/* columns rows colors chars-per-pixel */
"64 64 181 2 ",
"   c None",
".  c #161514",
"X  c #181715",
"o  c #191917",
"O  c #1B1A19",
"+  c #242321",
"@  c #292826",
"#  c #2B2B2A",
"$  c #353533",
"%  c #383735",
"&  c #3C3C3B",
"*  c #42413F",
"=  c #444342",
"-  c #4A4846",
";  c #4E4E4D",
":  c #504F4E",
">  c #555452",
",  c #5A5957",
"<  c #5D5D5C",
"1  c #67585B",
"2  c #695F60",
"3  c #636361",
"4  c #6C6364",
"5  c #726466",
"6  c #746569",
"7  c #72686A",
"8  c #78696E",
"9  c #7C6E72",
"0  c #737372",
"q  c #7F7679",
"w  c #7C7B7A",
"e  c #827476",
"r  c #88777D",
"t  c #847A7C",
"y  c #887D7F",
"u  c #81807E",
"i  c #867E81",
"p  c #8B7E82",
"a  c #858583",
"s  c #8B8184",
"d  c #888886",
"f  c #8E8789",
"g  c #8C8C8B",
"h  c #918586",
"j  c #92868A",
"k  c #948A8C",
"l  c #998C8E",
"z  c #958E90",
"x  c #9A8E92",
"c  c #949493",
"v  c #9C9496",
"b  c #9F979A",
"n  c #9C9B9B",
"m  c #A09093",
"M  c #A29799",
"N  c #A39B9C",
"B  c #A99D9E",
"V  c #A79FA2",
"C  c #A99EA2",
"Z  c #A3A2A2",
"A  c #ACA3A5",
"S  c #AAA8A7",
"D  c #AEA5A8",
"F  c #ACA9A9",
"G  c #B0A5A7",
"H  c #B4ABAD",
"J  c #B3B1AF",
"K  c #B6ADB0",
"L  c #BAAFB0",
"P  c #B4B3B2",
"I  c #BBB4B5",
"U  c #B9B8B7",
"Y  c #BEB5B8",
"T  c #BCBABA",
"R  c #C2B7BA",
"E  c #C4BBBD",
"W  c #C9BCBF",
"Q  c #C5C1BF",
"!  c #C5BEC0",
"~  c #C9BEC0",
"^  c #C5C2C3",
"/  c #CAC3C5",
"(  c #CCC8C7",
")  c #CAC7C8",
"_  c #CDCBCB",
"`  c #D2C3C6",
"'  c #D1C7C9",
"]  c #D2CCCD",
"[  c #D8CCCE",
"{  c #CED0CF",
"}  c #D3D1CF",
"|  c #D3CFD0",
" . c #D8CFD0",
".. c #D5D3D3",
"X. c #DAD4D5",
"o. c #DBD9D7",
"O. c #DDD6D8",
"+. c #DCDBDB",
"@. c #E2D5D7",
"#. c #E1D7DA",
"$. c #E3DCDD",
"%. c #E3E1DF",
"&. c #E5DFE1",
"*. c #E8DFE2",
"=. c #E4E1E2",
"-. c #EAE2E5",
";. c #E8E6E4",
":. c #EAE4E4",
">. c #E7E8E7",
",. c #EBE8E7",
"<. c #EAE7E8",
"1. c #EBE6E8",
"2. c #EAE9E9",
"3. c #ECEAEB",
"4. c #EFEBEC",
"5. c #EDEBEC",
"6. c #EDEDED",
"7. c #EFECED",
"8. c #EFEDEE",
"9. c #EEEEEE",
"0. c #F1E9EB",
"q. c #F1EBEB",
"w. c #F1EDEE",
"e. c #F3ECEE",
"r. c #F2EDEE",
"t. c #F8EDEF",
"y. c #EEF0EE",
"u. c #F1F0EF",
"i. c #EEEFF1",
"p. c #F1EFF0",
"a. c #F5EFF0",
"s. c #F2EFF0",
"d. c #EEF1F0",
"f. c #F3F0F1",
"g. c #F3F2F2",
"h. c #F4F1F2",
"j. c #F6F1F2",
"k. c #F5F3F4",
"l. c #F5F5F5",
"z. c #F7F5F6",
"x. c #F2F2F2",
"c. c #FBF2F5",
"v. c #F8F6F7",
"b. c #F9F6F7",
"n. c #FAF5F6",
"m. c #FDF6F7",
"M. c #F9F6F5",
"N. c #FAF8F7",
"B. c #F9F6F8",
"V. c #FAF7F8",
"C. c #FDF7FA",
"Z. c #F7F8F8",
"A. c #FBF9FA",
"S. c #FAFBFB",
"D. c #FBFBFB",
"F. c #FBFAFB",
"G. c #FAF9F9",
"H. c #FDF9FA",
"J. c #FCFBFB",
"K. c #FDFAFB",
"L. c #FEF8FB",
"P. c #FCFBFC",
"I. c #FDFBFC",
"U. c #FEFBFD",
"Y. c gray99",
"T. c #FDFCFD",
"R. c #FDFDFD",
"E. c #FDFCFC",
"W. c #FEFCFD",
"Q. c #FEFDFE",
"!. c #FFFDFF",
"~. c #FFFCFE",
"^. c #FDFEFE",
"/. c #FDFFFE",
"(. c #FEFEFE",
"). c #FEFFFE",
"_. c #FEFFFF",
"`. c white",
"'. c #FFFEFF",
"]. c #FCFEFD",
"[. c #FCFCFC",
/* pixels */
"                                                                                                                                ",
"                                                                                                                                ",
"                                                                                                                                ",
"                                                                                                                                ",
"        D Y E ( ' ( ! E I N                                                                     v D H Y ~ ( / Y H N             ",
"      *.e.j.a.j.j.b.H.H.b.f.3.$.]                                                       P ^ X.:.e.c.H.V.V.z.j.j.b.a.$.b         ",
"    / m.q.-.=.%.=.;.=.=.8.A.I.I.H.b.e.=.        v b A K R R E ! E Y K A b z         +.4.k.H.I.I.A.8.=.;.;.=.=.=.:.e.C.'         ",
"  4 ~ q.$.=.=.=.=.=...^ / X.p.A.I.H.T.H.f...) o.4.k.V.I.T.T.T.T.T.T.I.V.k.8.$.( T +.A.I.T.H.A.p.X./ ^ ..=.=.=.=.=.*.q.]         ",
"  4 D -.$.*.=.*.=.O./ ^ ^ ^ ) ;.A.[.T.T.T.A.T.T.T.T.T.T.T.T.T.T.T.T.T.T.T.T.T.T.j.z.A.A.T.T.3.) ^ ^ ^ / O.=.=.=.=.-.*.I         ",
"    k #.*.*.=.=.=._ ^ ^ ^ ^ / _ 3.T.T.T.T.T.T.T.T.T.T.T.T.T.T.T.T.T.T.T.T.T.T.A.I.T.A.Y.T.8._ ) ^ ^ ^ ! ] &.=.=.=.*.$.x         ",
"      ( -.*.=.=.+./ ^ ^ ^ ..<.3.b.T.T.T.T.T.T.T.T.T.T.T.T.T.T.T.T.T.T.T.T.T.T.T.T.T.A.T.T.z.3.<.X.^ ^ ^ / +.=.=.=.:.'           ",
"      D $.*.*.=.o.^ ^ ^ ] 8.+.p.T.T.T.T.T.T.T.T.T.T.T.T.T.T.T.T.T.T.T.T.T.T.T.T.T.T.T.T.T.T.8.$.4...^ ^ ^ O.=.=.=.*.A           ",
"        ' *.=.=.X.^ ^ ^ =.X...z.T.T.T.T.T.T.T.T.T.T.T.T.T.T.T.T.T.T.T.T.T.T.T.T.T.T.T.T.T.T.k.X...:.^ ^ ^ X.=.=.-.'             ",
"        N $.*.*.o.^ ^ ) | ^ 3.z.I.T.T.T.T.T.T.T.T.T.T.T.T.T.T.T.T.T.T.T.T.T.T.T.T.T.T.T.T.A.f.8.) ] ( ^ ^ O.=.=.$.N             ",
"          R *.-.$.) ^ T F =.p.8.p.f.z.A.A.[.T.T.T.T.T.T.T.T.T.T.T.T.T.T.T.T.T.T.T.T.T.T.[.z.8.p.;.K T ^ ) +.=.=.Y               ",
"            [ *.=...^ N / f.8.8.8.8.8.8.8.d.f.f.f.z.z.z.z.A.A.A.A.T.T.[.[.[.[.[.A.Z.v.l.f.8.8.e.a...N ! ..*.:.' s               ",
"              O.-.*.K Z e.e.8.f.8.8.y.y.8.8.8.8.8.8.8.8.8.8.8.8.8.8.8.8.8.8.y.y.y.8.8.8.8.8.p.e.e.e.H H *.-.X.v                 ",
"                $.#.v X.f.8.8.8.8.8.y.y.8.y.8.8.8.8.8.8.8.y.y.8.8.8.8.8.8.8.8.y.8.8.8.8.8.8.e.p.e.a.$.b O.#.D                   ",
"                  C F e.8.p.8.8.8.8.y.8.8.8.8.f.8.8.8.8.8.y.8.8.8.y.y.f.8.8.f.f.f.8.8.8.8.8.8.e.e.e.j.I C E                     ",
"                  p O.p.8.y.y.y.8.8.8.8.p.8.3.3.f.f.8.y.8.f.y.8.8.y.y.8.y.f.8.>.8.8.8.8.y.y.f.8.e.e.p.$.k H                     ",
"                q A e.8.8.8.d.8.8.8.y.f.e.f.X.n c / y.8.8.y.8.8.8.y.8.f.o.n g ^ 8.y.8.y.8.8.8.8.8.e.8.p.F s k                   ",
"            E X.( $.e.8.3.6.d.f.f.f.f.f.8.8.u.+.Z n 3.y.f.8.8.8.8.8.y.f.I g _ 8.8.8.f.f.f.f.f.y.8.3.f.i.=.( X.E                 ",
"            N q.a.e.e.;.F 3.g.J a F ) +.3.u.j.g.f.f.8.8.f.f.f.8.8.8.8.8.u.g.f.g.f.6.=._ P g n 3.z.I X.d.8.e.e.N e               ",
"          t q E e.e.u.P c A.%.> O O @ & , w N T o.;.8.f.8.f.8.f.8.f.f.u.6.+./ S a 3 = # O . % U T.T g 8.6.u.E e e e             ",
"        ] O.*.=.e.8.u.d U T.f.;.P = X . . . X + % : 0 c o.f.8.8.8.3.F w , & @ O . . . . # g o.8.A.+.0 =.y.8.;.$.@.`             ",
"      s X.t.a.e.e.8.3.d _ ;.w u g * O X O O X X X . . # ) f.8.8.8.>.> . . X X O X X O X # 0 d 0 ^ d.d o.y.y.e.t.t.X.            ",
"        t E 1.p.p.e.8.U =.+.% . X X O X X X X O O O . < 3.8.8.8.8.f.c X O O X O X X X O X . . O F A.U ;.y.e.e.,.R               ",
"          7 N ] 3.e.8.6.N.g.4 . O X X O X X X X O . # U g.8.8.f.8.y.+.; . O O O X O X X O O . & X.A.f.e.e.3./ f                 ",
"              q D | ;.8.g.E...> X X O O O O X O . # n 8.3.;.=.=.;.3.e.^ = . X X O O O X X . & U T.A.f.;.~ l 4                   ",
"                  i F _ +.3.b.;.c - + X X . X @ , U 8.8.8.f.f.f.8.8.y.u...0 $ O . . . O & u o.b.j.O.I f 4                       ",
"                        H ( ..$.>.$.T c u a n ^ ;.f.8.i.f.8.Z n 3.f.8.y.d.8.{ Z g w g P +.e.=./ N t                             ",
"                              I T ( X.=.>.6.u.u.8.8.8.y.y.+.; = X.p.u.p.e.p.j.j.j.q.,.O.E N y 7                                 ",
"                                N D D H U Q ) } o.$.;.8.f.<.i 0 :.p.e.3.*.O.] ! K N h e e t p                                   ",
"                              E ' ( ( E I F A A A A D H E b i s k I V v j s i y s l B L ~ ( A                                   ",
"                            X.$.[ ^ ] ] ( / / ~ E R I K H D D A V V A D H Y / ) ' ] ] ] ' ] )                                   ",
"                          [ t.q.;.] $.X.( / / ^ / / ^ / / / / / / / / / ^ ) _ _ _ ^ _ X.O.=.4...                                ",
"                        ( t.e.e.;.( e.3.%.+.o.X...] _ ( ) ) ) ) ) ) ) ) ) _ o.=.=./ ;.8.8.p.e.4.Y                               ",
"                      H 3.e.8.8.;.! 8.<.=.=.=.=.=.=.=.$.&.&.$.$.$.$.*.=.=.=.8.8.e.T =.8.y.y.8.a.O.                              ",
"                      #.e.8.y.8.3.I 3.3.=.&.=.=.=.=.=.=.=.=.=.=.*.*.=.=.=.;.8.e.p.H X.e.8.y.8.e.q.G                             ",
"                    H q.q.8.8.8.8.I +.e.;.&.=.=.=.=.=.=.=.=.=.=.*.*.=.=.=.3.y.p.a.F ) u.8.y.p.e.a.(                             ",
"                    ' e.e.8.y.e.e.H ! j.3.:.=.=.=.=.=.=.=.=.=.&.=.=.*.=.>.8.y.8.e.H I j.8.8.e.e.a.X.                            ",
"                    O.t.e.u.6.e.^ y v 3.e.3.:.=.=.=.=.=.=.=.=.=.=.=.=.3.8.y.8.8.e.I N e.f.8.f.e.j.X.                            ",
"                    $.e.8.8.e...s k 9 ~ a.e.e.3.3.;.=.=.=.=.=.=.:.<.8.8.8.8.y.8.p./ s =.8.d.8.e.a.[                             ",
"                    O.e.e.e.-.      x x X.p.8.e.8.8.8.6.3.3.8.8.e.e.p.e.8.8.y.8.p.O.y / f.y.d.e.e.                              ",
"                      t.t.e.        ~ H k ] u.f.8.8.8.8.d.d.d.8.8.8.y.8.8.8.8.8.p.;.v k 3.e.e.q.*.                              ",
"                                    #.[ J f S O.q.a.a.p.p.i.i.8.y.y.y.d.8.8.8.y.y.3./ e R e.t.q.                                ",
"                                    e.#.] Q N k N Y ] #.:.1.1.<.8.8.y.8.8.8.e.f.y.y.O.m                                         ",
"                                    t.q.O.' [ / H N k j k p s j O.e.8.8.8.8.8.8.y.y.-.                                          ",
"                                    t.t.3.o.( ] ] ] ' ( W r p 8 ) a.e.8.8.8.8.8.d.y.%.                                          ",
"                                    :.e.e.6.o._ _ _ _ ' ~ 9 l 8 E a.p.8.8.8.8.8.y.y.$.                                          ",
"                                      e.u.8.8.=..._ _ ] H 5   6 K j.8.8.y.8.8.8.8.y.O.                                          ",
"                                      3.e.8.u.u.3.;.X.X.B       C p.8.d.8.8.8.e.8.u.[                                           ",
"                                      N.z.g.y.u.e.e.e.:.        M q.e.y.8.y.y.u.e.j.~                                           ",
"                                    b.A.E.A.v.u.e.q.$.          k ,.e.u.y.y.y.u.e.t.L 2                                         ",
"                                    t.t.j.u.q.,.#.                ' e.e.8.6.u.z.z.A.#.A                                         ",
"                                        t.                          / ,.e.f.A.E.E.E.E.b.$.                                      ",
"                                                                      v ( ,.b.m.H.H.j.-. .                                      ",
"                                                                        7 h H ~ E H v p                                         ",
"                                                                            1 6 8 5                                             ",
"                                                                                                                                ",
"                                                                                                                                ",
"                                                                                                                                ",
"                                                                                                                                ",
"                                                                                                                                "
};
