/* XPM */
static char *_79dcfe8d0b94515a3a8b98a76d71eb7[] = {
/* columns rows colors chars-per-pixel */
"64 64 171 2 ",
"   c None",
".  c #030303",
"X  c #0C0C0C",
"o  c #131313",
"O  c #1B1B1B",
"+  c #222222",
"@  c #2A2A2A",
"#  c #3A393A",
"$  c #464646",
"%  c #4D4246",
"&  c #4D4D4D",
"*  c #554A4D",
"=  c #5A5154",
"-  c #5C5B5C",
";  c #615557",
":  c #605758",
">  c #646363",
",  c #696364",
"<  c #6D6668",
"1  c #6E6A6B",
"2  c #716967",
"3  c #736C6C",
"4  c #786E6F",
"5  c #75716F",
"6  c #756F71",
"7  c #757273",
"8  c #7C7375",
"9  c #7E787A",
"0  c #827B7B",
"q  c #897A7D",
"w  c #857F81",
"e  c #8A7E82",
"r  c #858282",
"t  c #8B8384",
"y  c #8C8688",
"u  c #8B8A8B",
"i  c #918788",
"p  c #948C8C",
"a  c #95908D",
"s  c #968E91",
"d  c #998E92",
"f  c #959292",
"g  c #9B9495",
"h  c #9F9A97",
"j  c #9E9A9A",
"k  c #A09697",
"l  c #A0969A",
"z  c #A39B9C",
"x  c #A49FA0",
"c  c #AA9FA2",
"v  c #A5A2A1",
"b  c #ABA4A5",
"n  c #ACA8A7",
"m  c #ABA7A8",
"M  c #ADAAAB",
"N  c #B0A7AA",
"B  c #B3ABAC",
"V  c #B9AFAE",
"C  c #B9B1AF",
"Z  c #B5AFB1",
"A  c #B5B3B2",
"S  c #BBB3B4",
"D  c #BCB8B5",
"F  c #BCB7B9",
"G  c #BDBBBB",
"H  c #C1B6B7",
"J  c #C1B6B9",
"K  c #C2BBBC",
"L  c #C9BDBF",
"P  c #C6C1BE",
"I  c #C3BEC0",
"U  c #C4C2C3",
"Y  c #CAC3C5",
"T  c #CCCAC6",
"R  c #CBC7C8",
"E  c #CDCACA",
"W  c #D0C6CA",
"Q  c #D3CCCC",
"!  c #D3D0CD",
"~  c #D9D0CF",
"^  c #D3CFD0",
"/  c #D8CFD0",
"(  c #D5D3D3",
")  c #DBD4D4",
"_  c #DBD8D5",
"`  c #DCD6D8",
"'  c #DDDBDB",
"]  c #E0D6D5",
"[  c #E0D5D9",
"{  c #E2DCDD",
"}  c #E3E0DE",
"|  c #E4DFE0",
" . c #E8DFE1",
".. c #E5E3E3",
"X. c #E9E4E5",
"o. c #E6E8E7",
"O. c #EAE9E6",
"+. c #EBE7E8",
"@. c #EEEDED",
"#. c #F1E7E7",
"$. c #F0E7EA",
"%. c #F1EDEE",
"&. c #EEF0EF",
"*. c #F1F1EF",
"=. c #F5EFF1",
"-. c #F2EFF0",
";. c #F8EFF2",
":. c #EFF1F0",
">. c #EEF2F1",
",. c #EFF1F0",
"<. c gray94",
"1. c #F1F1F1",
"2. c #F2F0F1",
"3. c #F0F2F1",
"4. c #F1F2F1",
"5. c #F3F1F2",
"6. c #F1F3F2",
"7. c gray95",
"8. c #F3F3F3",
"9. c #F4F0F1",
"0. c #F5F1F2",
"q. c #F4F2F3",
"w. c #F6F2F3",
"e. c #F7F3F2",
"r. c #F5F3F4",
"t. c #F7F3F4",
"y. c #F3F5F4",
"u. c #F4F4F4",
"i. c gray96",
"p. c #F6F4F5",
"a. c #F7F5F6",
"s. c #F5F7F6",
"d. c #F6F6F6",
"f. c gray97",
"g. c #F6F6F5",
"h. c #F3F2F2",
"j. c #F8F4F3",
"k. c #F8F4F5",
"l. c #FBF5F5",
"z. c #F9F5F6",
"x. c #FBF5F7",
"c. c #F9F6F7",
"v. c #FEF5F6",
"b. c #FAF4F5",
"n. c #FCF8F7",
"m. c #FAF8F6",
"M. c #FDF7F9",
"N. c #F9F9F9",
"B. c #FBFBFB",
"V. c #FDF9F8",
"C. c #FCF8F9",
"Z. c #FFF9FB",
"A. c #FCFAFB",
"S. c #FFFBFA",
"D. c #FEFAFB",
"F. c #FEF9F9",
"G. c #FDFBFC",
"H. c #FFFBFD",
"J. c #FFFBFC",
"K. c #FDFDFD",
"L. c #FEFCFD",
"P. c #FFFCFD",
"I. c #FFFDFD",
"U. c #FFFEFD",
"Y. c #FFFCFE",
"T. c #FFFDFE",
"R. c #FFFDFF",
"E. c #FEFEFE",
"W. c #FFFEFF",
"Q. c white",
"!. c #FEFBFC",
/* pixels */
"                                                                                                                                ",
"                                                                                                                                ",
"                                                                                                                                ",
"                                                                                                                                ",
"                                                                            D.W.W.D.n >                                         ",
"                                                                      ..D.D.W.{ A g A ..%.n.W.D.                                ",
"                                                                z g s y y w b Z ^ z.W.z.e.e.@.@.%.D.                            ",
"                                                      W.W.D.W.W.W.W.W.X.F b X.G.G.e.@.X.X...X.@.@.z.                            ",
"                                            e.W.W.W.W.W.W.G.D.D.G.z.+.` %.W.W.%...| ....| ..{ | X.z.                            ",
"                                        W.G.W.g.g.g.g.g.r.r.e.e.@.@.=.e.D.-.X.| +.@...' X.......{ W.                            ",
"                                    W.%.@.<.@.%.%.%.%.%.%.%.%.%.e.@.%.@.@.' ( ' ( ' ..X...' ..| ..#.                            ",
"                                  g.@.@.r.<.@.%.%.%.%.%.%.-.-.-.@.%.r.-.@.( U F U G Q ..{ X.@.{ %./                             ",
"                                e.O.<.g.O.@.g.O.@.@.@.@.@.@.@.@.@.@.@.O.<.<.<.@...E G R ( @.{ | v.g                             ",
"                              g.@.<.@.<.g.@.O.g.<.<.<.@.@.@.@.@.:.&.:.@.g.@.@.@.g.-.E G U _ _ e.{ 8 0                           ",
"                            e.X.O.@.<.:.&.<.<.@.:.:.:.:.:.:.&.&.:.&.:.:.g.@.@.<...g.' U U R X.z.p J '                           ",
"                            j.O.B.g.&.@.@.6.<.&.&.&.:.:.:.&.&.&.:.:.:.O.<.:.<.<.<.<.( U U R e.R p %.D.                          ",
"                          W.W.G.' M ' B.@.<.@.:.@.g.@.<.8.<.O.<.@.&.@.:.:.:.&.&.<.@.E U G ( @.u ..e.@...                        ",
"                          <.f - , G O.O.g.O.g.@.<...<.@.@.<.<.<.@.@.<.<.:.:.&.&.:...U G E D.j ( r.@.@.g.                        ",
"                        D.` r A f.W.W.<.@.g.@...O.g.g.<.@.@.<.@.@.@.@.@.:.&.&.&.:.@.( G +.F Q r.<.@.@.g.'                       ",
"                        z.e.z.G...A u - O $ W.A v W...<.<.@.@.<.@.@.@.@.:.:.&.&.@.u.' ..{ ( W.@.@.r.O.<...                      ",
"                      A D.e.G & @ o X X @ r W.' > @.O.@.<.<.@.<.<.<.:.@.@.@.&.&.<.@.g.<.@.@.@.@.e.<.@.<.@.                      ",
"                      I W.g.v . O + o O ( W...<.- ( W.@.@.<.@.@.<.<.:.@.@.@.&.&.O.B.O.O.R -.z.r.e.@.e.@.<.                      ",
"                      K e.g...# X O O O # + & W.r U B.@.O.<.<.@.:.:.:.:.@.@.@.@.<...%.g.m x x { =.+.r.@.@.                      ",
"                      E W...W.7 X O O O o X & W.A ..<.u.@.<.@.@.@.@.@.@.@.@.@.<.@.g.<.O.@.@.0 v D.@.@.e...                      ",
"                      U M.@.G.E o O O o + . f B.g.<.@.@.@.<.<.:.@.@.@.@.@.@.@.<.<.O.-.r.%.e.6 B W.%.@.g.(                       ",
"                    , U W...@.G.> X O O . $ @.W.<.<.@.@.:.@.@.@.<.<.<.<.@.@.@.:.g.@.O.@.M.M 3 3 z ;.M...                        ",
"                    ( { ' -.@.z.G o o O 1 <.B.<.@.@.@.@.@.<.:.:.@.@.@.@.@.:.<.<.X.<.%.-.b.%.b.R % l | F                         ",
"                  D.W.W.X.@.@.e.g.A M ' W.g.@.<.@.@.<.<.<.<.<.<.<.:.<.<.<.@.@.@.<.@.z.@.%.@. .K * c {                           ",
"                b D.M.e.z.@.g.@.@.g.W.<.<.@.@.@.@.@.@.@.@.@.@.@.<.@.:.<.<.8.<.<.g.@.%.@.( | K * 8 [                             ",
"                  W.+.@.X.-.r.<.@.O.@.@.B.:.O.<.@.@.@.@.@.<.<.<.<.<.<.@.@.@.O...` _ E R ` S = e `                               ",
"                  R | e.D.@.<.@.<.O.@.<.@.O.B.<.<.<.<.<.<.<.<.@.@.O...} ' ( E E E U ^ ( N                                       ",
"                    K e...e.-.-.@.e.%.@.<.8.@.@.@.O.+.....} ' _ Q E E E E E R E Q _ Q                                           ",
"                        K ) ` { ) _ Q Q ) ! W W W W R Y Y T R T R W Q Q Q ( ` ` Q B                                             ",
"                          < i z C P Q ) ) ) ] ~ ) ) ) ) ) ) ) ) ) ~ Q Q Q F z y 8 e                                             ",
"                          z 0 4 2 1 3 7 0 i g k z z b N M v j g p y 0 3 1 6 t l B J                                             ",
"                              R F N z p p 0 : 4 4 3 2 3 4 4 8 0 r a z A U Q ) { W c                                             ",
"                                      R / N 8 Y Q R Y Y Y Y Q _ { _ ( E ^ ^ R Y ) d                                             ",
"                                        W s 8 +.` ) ) ) ^ R R R R T ! ( ( ( _ )  .S                                             ",
"                                        Y 9 p %.X.X...| { | ..X.z.....*.@.%.e.%.v.)                                             ",
"                                        Y < b $.{  .X.X...X.X.X.*.) ' 8.<.&.e.@.b.|                                             ",
"                                          , B +.| | { X...{ ..} !.G E 8.O.g.%.-.=.%.                                            ",
"                                        R < M e.{ X.X.{ X...X.X.z.b G m.g.O.%.e.;.X.                                            ",
"                                            B @...' X.X.| ' ..@.z.v v 8.@.r.e.+.;.{                                             ",
"                                            g %.| | ..' X.%.@.%.X.z p !.@.@.e.e.M.L                                             ",
"                                              X.X.{ X.@...@.*.8.} v r <.r.O.-.@.D.                                              ",
"                                              B e.%.@.e.e.%.@.O.} D 3 X.r.e.=.b.)                                               ",
"                                                D j.!.O.@._ O.m.) K , R M.@.=.z.i                                               ",
"                                                b p P O.{ K !.O.( ) 8 r D.z.M.z                                                 ",
"                                                  2 B S f A !.*.) ! U , 0 V 4 2                                                 ",
"                                                    L { b D g.<.O.T ! P h i V #.                                                ",
"                                                    H { z A !.O.8.*.} } @.%.W.#.                                                ",
"                                                    H { r G m.<.O.<.@.O.D.%.#.$.                                                ",
"                                                    b D.r A W.X.g.@.r.@.@.%.b.                                                  ",
"                                                    4 D.f b D.*.u.o.O.M.-.X.M.                                                  ",
"                                                    ` W.g j *.*.:.6.@.@.=.%.v.                                                  ",
"                                                ) W.D.D.K 3 W.@.<.@.g.@.-.%.%.                                                  ",
"                                                  c B L b : ( n.@.:.<.<.%.%.e.                                                  ",
"                                                      ; * 0  .e.@.@.O.-.e.%.%.                                                  ",
"                                                      q Q M.D.D.-.g.r.%.z.W.G.                                                  ",
"                                                      J $. .+.X.O.O...' _                                                       ",
"                                                              7 5 4 5                                                           ",
"                                                                                                                                ",
"                                                                                                                                ",
"                                                                                                                                "
};
