/* XPM */
static char *a0c82c9c62f14f938fb23a460b45e4f9[] = {
/* columns rows colors chars-per-pixel */
"64 64 171 2 ",
"   c None",
".  c #151413",
"X  c #181617",
"o  c #191816",
"O  c #1A1718",
"+  c #1C1A1A",
"@  c #211D1E",
"#  c #262523",
"$  c #2F302E",
"%  c #32312F",
"&  c #312F30",
"*  c #353334",
"=  c #3B393A",
"-  c #424041",
";  c #545452",
":  c #5B595A",
">  c #665B5D",
",  c #615F60",
"<  c #6C5F61",
"1  c #636262",
"2  c #6D6364",
"3  c #6D6768",
"4  c #6F6D6D",
"5  c #756B6C",
"6  c #796C6F",
"7  c #796E70",
"8  c #747474",
"9  c #7D7476",
"0  c #7F7779",
"q  c #807577",
"w  c #857B7D",
"e  c #897D7F",
"r  c #877E80",
"t  c #8B7F81",
"y  c #868284",
"u  c #8D8284",
"i  c #898A8A",
"p  c #908587",
"a  c #91878A",
"s  c #958A8D",
"d  c #9A8B8E",
"f  c #978D90",
"g  c #9A8E90",
"h  c #959394",
"j  c #9D9395",
"k  c #9D9598",
"l  c #9D9B9C",
"z  c #A19596",
"x  c #A19699",
"c  c #A39A9B",
"v  c #A79EA2",
"b  c #AA9FA1",
"n  c #A6A2A3",
"m  c #ACA3A4",
"M  c #A9A9A7",
"N  c #ADA6A8",
"B  c #AFACAC",
"V  c #B0A5A6",
"C  c #B1A6A8",
"Z  c #B3ABAD",
"A  c #B4AFB1",
"S  c #BAAFB2",
"D  c #B6B2B2",
"F  c #BCB4B6",
"G  c #BCB8B7",
"H  c #BDB6B9",
"J  c #BDBBBC",
"K  c #C0B6B7",
"L  c #C1B7B9",
"P  c #C3BCBD",
"I  c #C8B9BC",
"U  c #C5BFC0",
"Y  c #C9BFC1",
"T  c #C5C2C3",
"R  c #CBC4C5",
"E  c #CAC6C9",
"W  c #CECCCB",
"Q  c #D1C3C6",
"!  c #D2C7C9",
"~  c #D2CCCD",
"^  c #D1D2CF",
"/  c #D4CED1",
"(  c #D9CFD2",
")  c #D5D3D3",
"_  c #DAD4D5",
"`  c #DCD6D9",
"'  c #DDDADB",
"]  c #E0D7D8",
"[  c #E3DBDD",
"{  c #E9DEDF",
"}  c #DFDDE0",
"|  c #E4DEE1",
" . c #EADEE2",
".. c #E4E1E2",
"X. c #EAE4E5",
"o. c #E7E8E7",
"O. c #E8E8E7",
"+. c #EAE7E9",
"@. c #E7E8E8",
"#. c #EEEEEE",
"$. c #F0E7EB",
"%. c #F1EDEE",
"&. c #F8EEEF",
"*. c #EDF0EF",
"=. c #F0F0ED",
"-. c #F4F0EF",
";. c #F1F0EF",
":. c #EFEFF0",
">. c #EFEEF1",
",. c #EFEFF1",
"<. c #F0EFF0",
"1. c #F1EFF0",
"2. c #F3EFF0",
"3. c #F2EFF0",
"4. c #F0EFF2",
"5. c #F5EEF1",
"6. c #F2EEF1",
"7. c #EFF0F0",
"8. c #EFF0F1",
"9. c #EFF2F1",
"0. c #EEF0F0",
"q. c gray94",
"w. c #F1F0F1",
"e. c #F1F1F1",
"r. c #F1F0F0",
"t. c #F3F0F1",
"y. c #F2F1F2",
"u. c #F3F1F2",
"i. c #F1F3F2",
"p. c gray95",
"a. c #F6F1F1",
"s. c #F4F0F2",
"d. c #F4F1F2",
"f. c #F5F1F2",
"g. c #F6F0F3",
"h. c #F4F2F3",
"j. c #F5F3F4",
"k. c #F2F5F4",
"l. c #F5F5F5",
"z. c #F7F4F5",
"x. c #F4F6F5",
"c. c #F7F6F7",
"v. c #F6F7F7",
"b. c #F3F1F2",
"n. c #F8F4F3",
"m. c #F8F4F5",
"M. c #F8F5F6",
"N. c #FBF4F7",
"B. c #F9F7F7",
"V. c #FAF5F5",
"C. c #FAF9F7",
"Z. c #F9F7F8",
"A. c #FAF7F8",
"S. c #F9F7F8",
"D. c #F9F8F9",
"F. c #FAF8F9",
"G. c #FBF9FA",
"H. c #F9FAFA",
"J. c #FBFAFA",
"K. c #FEF9F9",
"L. c #FDF8FA",
"P. c #FCF9FB",
"I. c #FCFAFB",
"U. c #FDFAFB",
"Y. c #F9FCFB",
"T. c #FDFAFC",
"R. c #F9FCFC",
"E. c #FEFCFD",
"W. c #FDFEFD",
"Q. c #FFFDFE",
"!. c #FCFBFB",
/* pixels */
"                                                                                                                                ",
"                                          b H P Z                                                                               ",
"                                Z c w 0 P %.K.C.B.%.[                                                                           ",
"                            a.z.z.2...R Z Z W #.K.K.5.[ S                                                                       ",
"                          2.#.#.q.q.z.z.z...R F D k f s j z m Z S F                                                             ",
"                          2.#.+.o.o.o.+.#.q.Z.a.) N J | a.B.K.T.K.Z.B.a.%.+.`                                                   ",
"                        | %.X.............o.+.a.B.H.X.| #.z.H.Y.Y.R.E.E.E.E.E.H.B.%.                                            ",
"                        ~ $.| ................O.+.q.j.z.#.*.#.9.k.q.z.z.H.H.H.K.K.K.K.Z.                                        ",
"                        P $.| | ........| | ` _ ) ..#.#.%.#.%.%.#.%.#.#.#.2.2.q.q.q.q.q.q.                                      ",
"                          { X.........` / E T T E ` #.#.#.#.#.%.#.#.#.#.#.#.#.#.#.#.#.#.#.#.2.                                  ",
"                          R $...X.[ ~ T T / ' o.+.#.q.#.#.#.#.#.#.#.#.#.#.#.#.#.#.#.#.9.9.#.%.#.                                ",
"                          j X.X...~ U T ) #.>.#.#.#.#.#.#.#.#.#.#.#.*.*.#.#.#.#.*.*.#.*.#.#.2.#.2.                              ",
"                        X.c H $.[ R T T } 2.>.#.#.#.#.#.#.#.#.#.#.#.#.#.#.#.#.#.#.#.#.#.#.2.#.q.%.X.                            ",
"                        a.` k ` X.R T U ' >.>.#.*.#.*.#.#.#.#.#.#.#.#.#.#.#.#.#.#.#.#.#.#.q.2.%.%.%.E                           ",
"                      -.%.a.E N X./ T T / >.9.*.*.*.#.#.#.#.#.#.#.#.#.#.#.%.#.%.%.#.%.q...T ~ +.q.a...                          ",
"                      %.#.%.%.U J ..E T E O.9.#.*.*.#.#.#.#.#.#.#.#.q.#.#.#.#.%.%.2.a.#.+.R i 4 l ..#.                          ",
"                    $.;.#.#.#.#.R ~ | T ) #.>.#.*.#.#.#.#.#.#.#.%.#.#.#.#.#.+.[ a...` +.q.n.#.P h W a.T                         ",
"                    %.#.*.#.*.%.%._ [ | O.2.>.#.*.#.#.#.#.#.#.#.%.#.#.#.#.q.B J 2.4 * : y D ) #.z.#.a.~                         ",
"                    ;.*.*.#.q.%.%.%.X.%.2.>.>.#.*.#.#.#.#.#.#.%.%.%.#.#.#.o.8 W #.h - X X + % ; M %.a._                         ",
"                    ;.#.*.*.%.%.2.| W %.2.2.#.*.*.#.#.#.#.#.#.#.#.#.#.#.q.) 8 +.` ..J * O o o X h q.q.[                         ",
"                    #.*.#.#.2.~ m v U 2.>.>.9.*.9.#.#.#.#.#.#.%.%.#.#.#.q.) i q.1 * = + O o X $ W a.2.[                         ",
"                    #.;.%.%.$.s b  .X.a.>.>.9.*.*.#.#.#.#.#.#.%.%.%.#.#.#...J z.1 . X O O o . 1 *.#.a.[                         ",
"                    ..%.+.5.$.f a $.2.2.>.>.#.#.#.#.#.#.#.#.#.#.#.#.#.9.#.#.q.K.l X O O O o + B q.#.2.[                         ",
"                    R ..%./ s w t ~ 2.>.>.2.#.#.#.#.#.#.#.#.#.#.#.#.9.*.*.*.q.H.X., X X + X ; ..*.#.q.`                         ",
"                    B E _ r 7 / X.+.%.#.>.>.>.#.#.#.#.#.#.#.#.#.#.#.#.#.*.#.#.q.Z...y = @ # M ;.#.#...[ ..                      ",
"                      G ~ a < L [ +.%.#.q.>.#.%.#.#.>.>.#.#.#.#.#.#.#.#.#.#.q.#.%.q.q.` G D ..#.9.#.#.Z.T.B.                    ",
"                        P P 6 6 P / ` ..X.#.#.#.%.#.2.2.#.#.#.%.%.#.#.#.#.#.#.q.%.#.%.2.q.f.#.#.9.*.9.q.B.z.P                   ",
"                          K F q 7 D ~ ~ ~ _ ` ..O.+.#.2.%.%.%.%.%.#.#.#.#.#.#.#.#.#.#.%.#.#.#.*.*.9.#.%.%.a.H                   ",
"                            c Z u 5 m E ~ E ~ W W ) _ ' ..o.+.#.#.%.#.#.2.2.q.#.9.q.#.#.q.#.#.*.*.#.9.%.{ !                     ",
"                                g w 2 a U ~ ~ W W W W E W W ) ) ` ` ' | ..o.o.O.+.+.+.#.#.+.+.+.+.@.+.| Y g                     ",
"                                    5 > 7 m T ~ ~ ~ ~ ~ W W W W W W W W W W W W ~ ~ ^ ^ ) ) ) ) ~ R P N                         ",
"                                        w t w u c Z L T R ~ ~ ~ ~ ~ ~ ~ ~ ~ ~ ~ ~ ! ~ R T P H Z b                               ",
"                                        m S K V g t q q w e p d j k z c c k j d d d s u                                         ",
"                                        a c ~ ~ ~ ~ T K Z m z g a u t w w t u t                                                 ",
"                                      2 2 b ~ E E E ~ E ~ ~ ~ ~ R U P U T R R Q                                                 ",
"                                      5 2 R ..` ` ) ) ) ) ) ) / W ~ ~ ) ` [ [ {                                                 ",
"                                        9 [ 5.#.#.#.#.#.X.o.#.o.| ..........{ X.S                                               ",
"                                        u X.%.#.#.#.#.%.` _ 2.............|  . .I                                               ",
"                                        d X.%.#.*.*.#.a.R R a.X...........| |  .Q                                               ",
"                                        j X.$.#.*.9.#.z.D D %.+.............|  .!                                               ",
"                                        w [ %.*.#.*.*.q.n Z +.2.X...........| X.!                                               ",
"                                          Q a.#.*.*.#.#.h N X.5.%.+.........| X.                                                ",
"                                          b &.#.#.#.#.o.y Z { %.%.%.%.+.X.X.X...                                                ",
"                                            _ q.#.2.2.) 9 H ` %.#.+.%.%.#.2.%.                                                  ",
"                                            c X.5.$.a.Z 0 R _ %.2.) #.%.%.O.                                                    ",
"                                            2 z [ &.( q z ~ _ %.2.T ~ ~ L                                                       ",
"                                              u w g w s R ~ [ 2.q.F c P H                                                       ",
"                                              X.~ D F ~ ~ ` #.2.a.H N ~ R                                                       ",
"                                              #.;.%.O...X.%.%.2.j.F c ~ R                                                       ",
"                                              +.#.;.q.%.#.2.%.2.5.D j ` !                                                       ",
"                                              +.#.#.#.#.#.#.%.2.j.A k $.Y                                                       ",
"                                            Z +.#.;.#.#.q.#.#.2.5.n c $.C                                                       ",
"                                            N +.%.#.*.#.#.#.%.&.$.g C N.$.                                                      ",
"                                            m #.#.#.*.#.*.9.#.5.X.w H &.&.$.                                                    ",
"                                            N #.#.#.*.*.9.#.#.q.E 3 u z j s w                                                   ",
"                                            Z %.#.#.*.*.*.#.#.z...n 6                                                           ",
"                                              ~ +.%.&.&.&.%.&.n.B.V.X.                                                          ",
"                                                k C L Y ! ( _ ] ] _ _                                                           ",
"                                                                                                                                ",
"                                                                                                                                ",
"                                                                                                                                ",
"                                                                                                                                ",
"                                                                                                                                ",
"                                                                                                                                "
};
