/* XPM */
static char *e31283dcbe7d4d06b5345f504adacfc7[] = {
/* columns rows colors chars-per-pixel */
"64 64 181 2 ",
"   c None",
".  c #6C5A5E",
"X  c #675B60",
"o  c #6D6265",
"O  c #736266",
"+  c #76696C",
"@  c #796A6C",
"#  c #7B6E71",
"$  c #7C7173",
"%  c #827376",
"&  c #847679",
"*  c #857A7C",
"=  c #887A7F",
"-  c #877C80",
";  c #8A7F81",
":  c #8C8384",
">  c #8E8688",
",  c #8E8888",
"<  c #928486",
"1  c #92878B",
"2  c #948B8D",
"3  c #9D8F92",
"4  c #969191",
"5  c #9C9394",
"6  c #9F9798",
"7  c #9F999B",
"8  c #A29597",
"9  c #A19798",
"0  c #A39A9C",
"q  c #A89B9D",
"w  c #A79EA1",
"e  c #A99DA0",
"r  c #A7A2A3",
"t  c #ABA3A5",
"y  c #ACA6A8",
"u  c #ADAAAB",
"i  c #B3A7A9",
"p  c #B4ABAD",
"a  c #B9ADAF",
"s  c #B5AEB1",
"d  c #BAAFB2",
"f  c #B6B2B2",
"g  c #BBB3B5",
"h  c #BDB6B8",
"j  c #BEBABB",
"k  c #C1B3B6",
"l  c #C0B7B8",
"z  c #C3BCBC",
"x  c #CABABD",
"c  c #C4BFC0",
"v  c #CBBEC1",
"b  c #C6C2C2",
"n  c #CBC4C5",
"m  c #CCC8C7",
"M  c #CFC7C8",
"N  c #CECCCA",
"B  c #D1C7C9",
"V  c #D2CCCC",
"C  c #CFD0CE",
"Z  c #D1D0CF",
"A  c #D4CED0",
"S  c #D8CFD0",
"D  c #D5D3D2",
"F  c #DBD4D5",
"G  c #D5DAD6",
"H  c #DAD9D7",
"J  c #DDD6D8",
"K  c #DDDCDB",
"L  c #E1D2D5",
"P  c #E2D7DB",
"I  c #E2DCDD",
"U  c #DEE0DE",
"Y  c #E1E1DF",
"T  c #E4DEE0",
"R  c #EADFE2",
"E  c #E5E3E2",
"W  c #EAE5E5",
"Q  c #E6E9E5",
"!  c #EBE9E7",
"~  c #EDE6E9",
"^  c #EEEEEE",
"/  c #F1E4E9",
"(  c #F1EEEE",
")  c #F9EDEF",
"_  c #EEF0EE",
"`  c #F1F0EF",
"'  c #F3EFF0",
"]  c #EFF0F0",
"[  c #F2F1F1",
"{  c #F4F1F0",
"}  c #F7F1F1",
"|  c #F4F2F1",
" . c #F7F2F1",
".. c #F5F1F2",
"X. c #F7F1F3",
"o. c #F4F2F3",
"O. c #F5F2F3",
"+. c #F7F3F2",
"@. c #F6F4F2",
"#. c #F5F3F4",
"$. c #F4F3F4",
"%. c #F7F2F4",
"&. c gray96",
"*. c #F5F4F4",
"=. c #F6F5F4",
"-. c #F7F7F4",
";. c #F7F5F6",
":. c #F7F6F7",
">. c #F3F1F2",
",. c #F9F1F1",
"<. c #F8F2F3",
"1. c #FAF3F3",
"2. c #FAF4F4",
"3. c #F9F6F7",
"4. c #FBF7F7",
"5. c #F8F1F3",
"6. c #F6F9F6",
"7. c #F9F9F7",
"8. c #F9F7F8",
"9. c #FAF7F8",
"0. c #FDF7F8",
"q. c #F9F9F9",
"w. c #FAF9F9",
"e. c #FBF9FA",
"r. c #FAF9FA",
"t. c gray98",
"y. c #FBFBFB",
"u. c #FBFBFA",
"i. c #FCF9F8",
"p. c #FCFBF9",
"a. c #FCFAFB",
"s. c #FDFAFB",
"d. c #FDFBFB",
"f. c #F8FCF9",
"g. c #FAFCF9",
"h. c #F8FEFA",
"j. c #FAFEFB",
"k. c #FBFEFB",
"l. c #FAFFFB",
"z. c #FDFCFA",
"x. c #FCFDFA",
"c. c #FDFBFC",
"v. c #FDFBFC",
"b. c #FEFBFC",
"n. c #FBFCFC",
"m. c #FBFDFC",
"M. c #FBFEFD",
"N. c #FAFEFD",
"B. c #FBFEFE",
"V. c #FBFFFE",
"C. c gray99",
"Z. c #FDFCFC",
"A. c #FCFDFC",
"S. c #FDFDFC",
"D. c #FDFCFD",
"F. c #FDFDFD",
"G. c #FEFDFC",
"H. c #FEFCFD",
"J. c #FEFDFD",
"K. c #FFFCFC",
"L. c #FDFEFC",
"P. c #FCFEFD",
"I. c #FDFEFD",
"U. c #FCFEFC",
"Y. c #FFFEFC",
"T. c #FEFFFD",
"R. c #FEFEFC",
"E. c #FDFDFE",
"W. c #FFFCFE",
"Q. c #FEFDFE",
"!. c #FFFDFE",
"~. c #FCFEFE",
"^. c #FDFEFE",
"/. c #FDFFFE",
"(. c #FDFFFF",
"). c #FEFEFE",
"_. c #FFFEFE",
"`. c #FEFFFE",
"'. c #FEFFFF",
"]. c white",
"[. c #FDFDFD",
/* pixels */
"                                                                                                            4 5                 ",
"      D W ' } %.%.} ' ! H m z                                                                   g N F W ( ( ( ` ` ( E J         ",
"    W 4.z.E.E.E.E.E.E.E.E.E.a.} ! D                       j b b b z h y                   m E ' 9.v.E.E.v.v.E.E.E.z.z.a.<.      ",
"  4 } @.7.E.E.E.n.n.E.E.E.E.E.E.E.v.4.W V       n J ! } 4.a.a.E.E.a.u.} ^ E D j f j N E } u.v.E.E.E.E.E.E.E.E.k.k.E.z.a.0.      ",
"  2 } } @.u.E.E.E.n.E.E.E.E.n.E.a.E.v.E.a.%.^ =.E.E.E.E.E.E.E.E.E.E.E.E.E.E.E.u.^ ^ u.E.E.E.E.E.E.E.E.E.n.n.k.k.k.k.z.a.4.      ",
"    ( <.} =.u.E.E.E.E.E.E.E.E.E.E.E.E.E.E.E.E.E.E.E.E.E.E.E.E.E.E.E.E.E.E.E.E.E.E.E.E.E.E.E.E.E.E.E.E.n.n.n.k.k.k.k.=.} <.      ",
"    I <.} >.>.=.E.E.E.E.E.E.E.E.E.E.E.E.E.E.E.E.E.E.E.E.E.E.E.E.E.E.E.E.E.E.E.E.E.E.E.E.E.E.E.n.E.E.E.n.E.E.E.k.6.` ^ ( <.      ",
"    n ( ( ^ ^ ^ %.u.E.E.E.E.E.E.E.E.E.E.E.E.E.E.E.E.E.E.E.E.E.E.E.E.E.E.E.E.E.E.E.E.E.E.E.E.E.E.E.E.E.E.E.u.=.>.^ ^ ( ( E       ",
"      W ( ( ( ' ^ ^ =.a.v.v.=.u.E.E.E.E.E.E.E.E.E.E.E.E.E.E.E.E.E.E.E.E.E.E.E.E.E.E.E.E.E.E.E.n.=.k.E.u.=.>.^ ! ^ ` ( (         ",
"      B ( ( ^ ^ ^ ^ ^ ^ %.! H =.E.E.E.E.E.E.E.E.E.E.E.E.E.E.E.E.E.E.E.E.E.E.E.E.E.E.E.E.E.E.E.u.E U =.>.^ ^ _ _ _ ^ ( E         ",
"        W ( ( ' ^ ^ ^ ^ ! b W a.E.E.E.E.E.E.E.E.E.E.E.E.E.E.E.E.E.E.E.E.E.E.E.E.E.E.E.E.E.E.E.E.=.m T ' ^ ^ _ ^ ` ( (           ",
"        z ( ( ^ ^ ^ ^ ' b m v.E.E.E.E.E.E.E.E.E.E.E.E.E.E.E.E.E.E.E.E.E.E.E.E.E.E.E.E.E.E.E.E.E.E.W h ! ' ^ ^ ! ( (             ",
"        : J } ^ ( ^ >.H u ^ E.E.E.E.E.E.E.E.E.E.E.E.E.E.E.E.E.E.E.E.E.E.E.E.E.E.E.E.E.E.E.E.E.E.E.9.n c ' ( ^ ^ ( (             ",
"          7 ~ ' ( ' ! y D >.u.E.E.E.E.E.E.E.E.E.E.E.E.E.E.E.E.E.E.E.E.E.E.E.E.E.E.E.E.E.E.E.E.E.E.u.! u J ' ! ( (               ",
"            f ( ( } b y ( ^ 8.E.E.E.E.E.E.E.E.E.E.E.E.E.E.E.E.E.E.E.E.E.E.E.E.E.E.E.E.E.E.E.E.E.E.4.' V y ( ( ( I               ",
"            2 c ' E 5 H >.^ >.u.E.E.E.E.E.E.E.E.E.E.E.E.E.E.E.E.E.E.E.E.E.E.E.E.E.E.E.E.E.E.E.E.u.' ( ( t m <.W                 ",
"              t V s u >.^ ( ^ >.4.u.E.E.E.E.E.E.E.E.E.E.E.E.E.E.E.E.E.E.E.E.E.E.E.E.E.E.E.E.E.u.>.^ ( ' A 7 I                   ",
"              b a : J >.^ ^ ^ ^ ^ ^ >.>.=.=.=.=.u.u.u.u.u.u.u.u.u.u.u.u.u.u.u.u.=.=.=.=.=.>.>._ ^ ^ ^ ( ^ r                     ",
"              z 5 e ( ^ ^ ^ ^ >.^ ^ ^ ^ ^ ^ ^ ^ ^ ^ ^ ^ ^ ^ ^ ^ ^ ^ ^ ^ ^ ^ ^ ^ ^ ^ ^ ^ ^ ^ ^ ^ ^ ^ ^ ^ ' H                     ",
"              > * V ' ^ ^ ^ ^ ^ ^ ^ ^ ^ ^ ^ ^ ^ ^ ^ ^ ^ ^ ^ ^ ^ ^ ^ ^ ^ ^ ^ ^ ^ ^ ^ ^ ^ ^ ^ ^ ^ ^ ^ ^ ' ( W 5                   ",
"            W I J ! ( ^ ^ ^ ^ ^ ^ ^ ^ ^ ^ ^ ^ ^ ^ ^ ^ ^ ^ ^ ^ ^ ^ ^ ^ ^ ^ ^ ^ ^ ^ ^ ^ ^ ^ ^ ^ ^ ^ ^ ^ ^ ^ ( I I (               ",
"            B <.' ^ ^ ^ ^ ^ ^ ^ ^ ^ ^ ^ ^ ^ ^ ^ ^ ^ ^ ^ ^ ^ ^ ^ ^ ^ ^ ^ ^ ^ ^ ^ ^ ^ ^ ^ _ ^ ^ ^ ^ ^ ^ ^ ^ ^ ( ' I <             ",
"          o : J ( ^ ] ^ ^ ^ ^ ^ ^ ^ ^ ^ ^ ^ ^ ^ ^ ^ ^ ^ ^ ^ ^ ^ ^ ^ ^ ^ ^ ^ ^ ^ ^ ^ ^ ^ _ ^ ^ ^ ^ ^ ^ ^ >.^ ( W 9 o +           ",
"        V V V E ( ] _ ^ ^ ^ ^ ^ ^ ^ ^ ^ ^ ^ ^ ^ ^ ^ ^ ^ ^ ^ ^ ^ ^ ^ ^ ^ ^ ^ ^ ^ ^ ^ ^ ^ _ ^ ^ ^ ( ( ( ( >.^ ^ ! V B v d         ",
"      I ( } ( ( ^ ^ >.^ ^ ^ ^ ^ ^ ^ ^ ^ ^ ^ ^ ^ ^ ^ ^ ^ ^ ^ ^ ^ ^ ^ ^ ^ ^ ^ ^ ^ ^ ^ ^ ^ _ ^ ^ ^ ^ ^ ^ ^ >.^ _ ( } ) ) L         ",
"        H ( ( ^ _ _ _ _ ^ ^ _ ^ ^ ^ ^ ^ ^ ^ ^ ^ ^ ^ ^ ^ ^ ^ ^ ^ ^ ^ ^ ^ ^ ^ ^ ^ ^ ^ ^ ^ ^ ^ ^ ^ ^ _ ^ ] _ _ ^ ( ( / L 3         ",
"          m ! ( ` _ _ ^ _ ^ ^ ^ ^ ^ ^ ^ ^ ^ ^ ^ ^ ( ( ^ ( ( ^ ^ ( ( ( ( ^ ^ ^ ^ ^ ^ ^ ^ ^ ^ ^ ^ ^ >.^ ] ^ ! W I F g %           ",
"            t V W ! ^ ^ ^ >.>.^ ^ ^ ^ ^ ^ ^ ^ ^ ^ ^ ( ^ ^ ^ ^ ^ ^ ^ ^ ^ ^ ^ ^ ^ ^ >.^ ^ ^ ] ^ ^ ^ ! E K H D V l 2               ",
"              $ t B J J I W W ! ^ ^ ^ ^ ^ ^ ^ ^ ^ ^ ^ ^ ^ ` ` ` >.` ` ` ^ ^ ^ ! ^ ! ! Q E U H H D V V V V l 9 #                 ",
"                  : y n V N V Z D H H K K K Y Y E E E E E Q Q Q Q E E K K H H F D D V N N N N V V V V l 9 $                     ",
"                      , t b V V N V N N N N N N N N N N N V Z Z Z N N N N N N N N N N N N V V V V l 5 $                         ",
"                          : 9 f n V V V V V N N N N N N N N N V N N N N N N N V V V V V V M l p 4                               ",
"                              9 2 t f z m V V V V V V V N N V V N N N V V V V V V m x a 5 = +                                   ",
"                              q 5 l d y y t u f h z b n n m N m N m n b l f t 5 : & # $ = 9 a                                   ",
"                              : z V V V N n z f u t w 9 7 5 4 2 2 > : : ; ; : 2 9 y h b V V V                                   ",
"                              N I D V N N N N N V V V N n n b z z z b b m M V V V V N V N N Z D m                               ",
"                            z ( ( ^ W I D b Z N N N N N N N N N N N N N V N N N N N b V F K Q ! !                               ",
"                            E ( ( ( ' >.E N ! E Y K H F D Z D Z Z C D D F F H K I E n E ^ _ _ _ ^ K                             ",
"                          l ( ( ( ( ( >.F b ` ^ ` ` ^ ^ ! ! ! ! ! ! ! ! ^ ^ ^ ' ( ' z K ` ! _ _ ( !                             ",
"                          D ` ( ! ^ ^ } N z >.( ^ ^ ^ ^ ^ ^ ^ ^ ^ ( ( ( ( ( ^ ( ( ( g D >.^ _ _ ^ ( P                           ",
"                          I } ^ ^ _ ^ } h j } ( ( ^ ^ ^ ^ ^ ( ^ ^ ^ ^ ^ ^ ^ ^ ( ( ' p b } ^ ^ ] ( ' T                           ",
"                        9 W ` ^ _ _ ^ ' t z ' ( ( ( ^ ^ ^ ^ ( ( ^ ^ _ _ _ _ _ ^ ^ >.s s } ^ _ _ ^ ' ~                           ",
"                        q ( ( ^ ^ ^ ^ ^ 5 b ' ^ _ ^ ^ ^ ^ ^ ^ ^ ^ ^ ^ ^ ^ _ ^ ^ ' >.h q ( ^ ] ] ( ( /                           ",
"                        9 ( ( ( ( ^ >.T > V ' ^ _ ^ ^ ^ ( ^ ^ ^ ^ ^ ^ ^ ^ _ ^ ^ ( ' c 1 ~ ^ _ _ ( ' /                           ",
"                        5 W ( ` ^ ' ' N ; J ( ^ ^ ^ ^ ( ( ( ^ ^ ^ ^ ^ ^ _ ^ ^ ( ( ' A - F } ^ ^ ( ' R                           ",
"                          J ( ( ^ ( ' t 2 E ( ^ ^ _ ^ ( ( ^ ^ ^ _ _ _ ^ _ ^ ^ ^ ( ' I : d ' ^ ^ ( ' J                           ",
"                          h ( ( ( ( T & a ( ( ^ ^ ] ^ ^ ^ ^ _ _ ^ ^ ^ _ ^ ^ ( ^ ^ >.W w : W ' ( ( ~                             ",
"                            S ( ( ' t * V ( ` ^ _ _ ^ ^ ( ( ^ ^ ^ ' ^ ^ ( ( ^ ' >.^ ^ n $ f ( ( '                               ",
"                              n F a o 5 E ( ! K H Q ` ` ( ` } } } } ' } ( ( E D N K >.I 1 + v                                   ",
"                                  # o q ( ( ( W N p y a k x v v z z d i t 0 0 f K ^ ^ ~ 2 X                                     ",
"                                      t >.( ( ( ` I l i q 8 < @ + 1 q t s z V ! >.^ ^ ( q                                       ",
"                                      i ( ( ( ( ` ! G C V V i & $ a V V V D E ( ( ^ _ ! q                                       ",
"                                      t ( ( ( ( ^ _ Q D N V 3 % + q V N D E ( ' ( >.^ ~ 5                                       ",
"                                      5 ( ( ( ( ` ^ ^ ! J S ; & @ 2 H Y ! ( ^ ( ( ' ( W 2                                       ",
"                                      1 ! ( ( ^ ^ ^ ^ ^ ( R =   # 2 W } ^ ( ( ( ( ( ( E :                                       ",
"                                      0 ! ' ( ^ ^ ^ ^ ( ' P &   % * E ( ^ ^ ^ ( ( ( ( E 5                                       ",
"                                    ~ ~ ( ^ ^ ^ ^ ^ ^ ( ' B       @ J ` ` _ ^ ^ ^ ( ^ ^ W                                       ",
"                                    ( ( >.^ ^ ^ ^ ^ ^ ^ ' b       O n ` ^ _ ^ ^ ( ^ ^ ^ (                                       ",
"                                      ^ ^ _ ^ ^ _ ^ ^ ( ( z       . d ` ^ _ _ ^ ^ ^ ^ ` (                                       ",
"                                      >.( ! _ ^ ^ ^ ( ( (           e ` ^ _ _ ^ ^ ( ( (                                         ",
"                                        W ( ( ( ` ( ( (             2 I ! ` ` ( ( ( (                                           ",
"                                            H D V V m                   t h b B V V                                             ",
"                                                                                                                                ",
"                                                                                                                                "
};
