/* XPM */
static char *_8d01ba267ff49768a55c65afd91ced3HzWBDPWr4M1vkMN3[] = {
/* columns rows colors chars-per-pixel */
"64 64 164 2 ",
"   c None",
".  c #A85D24",
"X  c #AD6025",
"o  c #BC6D2B",
"O  c #BC712E",
"+  c #BE7D2C",
"@  c #AB7D31",
"#  c #B57E30",
"$  c #C5722F",
"%  c #C57B2E",
"&  c #CA7C2D",
"*  c #C47532",
"=  c #CA7733",
"-  c #C37D32",
";  c #CD7C32",
":  c #D37B34",
">  c #B88B2D",
",  c #A88235",
"<  c #A3853A",
"1  c #AA8D3C",
"2  c #BC9233",
"3  c #B3923A",
"4  c #BC9A38",
"5  c #C3862E",
"6  c #C98B2E",
"7  c #C7932E",
"8  c #CF902F",
"9  c #D29C2E",
"0  c #D89A2E",
"q  c #C58532",
"w  c #CC8334",
"e  c #C68A35",
"r  c #CD8B33",
"t  c #C58438",
"y  c #CF843A",
"u  c #CA8D3A",
"i  c #D28232",
"p  c #D98336",
"a  c #D48A35",
"s  c #D98B37",
"d  c #D88E3A",
"f  c #C29733",
"g  c #CB9334",
"h  c #C29A32",
"j  c #CB9936",
"k  c #C5913B",
"l  c #CB9439",
"z  c #CE9C3A",
"x  c #D49334",
"c  c #DB9534",
"v  c #D59D35",
"b  c #DA9E33",
"n  c #D49238",
"m  c #DF933A",
"M  c #D29A3B",
"N  c #E09B35",
"B  c #EB9937",
"V  c #E29C39",
"C  c #CDA232",
"Z  c #CDA13D",
"A  c #CAAA3E",
"S  c #D6A131",
"D  c #DBA333",
"F  c #D5A834",
"G  c #DAAC35",
"H  c #D4A33C",
"J  c #D9A43A",
"K  c #D7AA3B",
"L  c #DCAB3A",
"P  c #DFB035",
"I  c #D4B03C",
"U  c #DCB33F",
"Y  c #E4A435",
"T  c #EBA437",
"R  c #E2AB35",
"E  c #EEAD36",
"W  c #E3A339",
"Q  c #E8A639",
"!  c #E2AB3A",
"~  c #E8AE39",
"^  c #F2A339",
"/  c #E3B336",
"(  c #EBB535",
")  c #E6BA35",
"_  c #ECBC35",
"`  c #E1B039",
"'  c #EFB639",
"]  c #E5BC3C",
"[  c #ECBB39",
"{  c #F1B436",
"}  c #F3BC35",
"|  c #F8BF37",
" . c #F1B039",
".. c #EDC336",
"X. c #EFC835",
"o. c #E7C53F",
"O. c #EAC33A",
"+. c #EDCB3E",
"@. c #F5C435",
"#. c #F8C537",
"$. c #F5CB35",
"%. c #F9CE35",
"&. c #F5C438",
"*. c #F9C738",
"=. c #F2CD3B",
"-. c #F7D135",
";. c #F8D235",
":. c #F6D33B",
">. c #F9D53A",
",. c #F9D93D",
"<. c #AB9144",
"1. c #B09340",
"2. c #B69A45",
"3. c #BDA245",
"4. c #B8A049",
"5. c #C1A242",
"6. c #CAAC41",
"7. c #D2A440",
"8. c #D4AD47",
"9. c #CEB246",
"0. c #D2B346",
"q. c #D1B645",
"w. c #D6B345",
"e. c #DCB240",
"r. c #D9B342",
"t. c #DDBE42",
"y. c #D6B94C",
"u. c #C7B454",
"i. c #D1BC56",
"p. c #E3BC42",
"a. c #E2BB40",
"s. c #DDC045",
"d. c #DFC146",
"f. c #DECA52",
"g. c #E6C642",
"h. c #E3C747",
"j. c #E4C341",
"k. c #E7C845",
"l. c #EDCF43",
"z. c #E9CD45",
"x. c #EBCE44",
"c. c #EBCC41",
"v. c #E1C54B",
"b. c #E0C74D",
"n. c #F0CB40",
"m. c #EDD043",
"M. c #EFD144",
"N. c #EFD241",
"B. c #ECD44D",
"V. c #F6D741",
"C. c #F2D542",
"Z. c #F7DC45",
"A. c #F9DD44",
"S. c #F9DD47",
"D. c #FADD43",
"F. c #F3DB4B",
"G. c #E3C850",
"H. c #F2DB50",
"J. c #FAE24C",
"K. c #F7E658",
"L. c #F7E75F",
"P. c #FDF063",
"I. c #FEF162",
"U. c #E0DC93",
/* pixels */
"                                                                                                                                ",
"                                                                                                                                ",
"                                                                                                                                ",
"                                                                                                                                ",
"                                                                                                                                ",
"                                                                                                                                ",
"                                                                                                                                ",
"                                                                                                                                ",
"                                                                                                                                ",
"                                                                                                                                ",
"                                                                                                                                ",
"                                                                                                                                ",
"                                                                                                                                ",
"                                                                                                                                ",
"                                                                                                                                ",
"                                                                                                                                ",
"                                                                                                                                ",
"                                                                                                                                ",
"                                                                        4.i.i.u.                                                ",
"                                                                    3.f.L.I.I.K.x.I                                             ",
"                                                                5.h.V.>.S.J.S.=.-.;.O.C                                         ",
"                                                          < 6.k.=.$.%.-.@.;.%.{ $.;.;.;.) >                                     ",
"                                                      1 9.x.O.G v g g $.$.-.-.%.$.;.;.;.;.$.h                                   ",
"                                                  1 q.m.>./ g a i : o _ ;.;.;.;.;.;.;.-.-.;.=.4                                 ",
"                                              < 9.l.>.%.;.g * : p i R -.-.-.;.;.;.$./ v g ..;.[ ,                               ",
"                                            A +.>.;.} $.;.X./ ( ( $.;.-.%.;.;.;.$.j w = O ) %.@.0.                              ",
"                                        5.g.O.G G ..%.;.;.;.;.;.;.;...J g ..;.-.$.P x c ( ;.$.+.y.                              ",
"                                    1.s.=.F g r - 5 %.;.;.;.-.-.-.-./ x D %.-.-.%.;.%.*.;.;.O.k y o                             ",
"                                  9.M.>.S q i : = 8 %.;.;.;.$.@.%.;.-.-.%.@.%.=.-.-.-.-.;.>.Z s ^ %                             ",
"                              2.v.,.;.;.G 6 a c R $.;.-.;.;.} } ;.;.;.%.%.@.$.Z o.:.:.o.H l r } &.+                             ",
"                            <.G.! / -.;.;./ / ;.;.;.O.%.;.:.:.;.;.;.=.z H :._ - d M z n Y ( @.%.7                               ",
"                              z b n ] ;...q _ =.K e.H p.U H H U ] U u s m U +.q ^ @.} R R ;.;.9 -                               ",
"                              t.D.@.J =.] ; c M V M k s ( $.( N a a T *.{ r C.H c ;.-.J w $.@.& W                               ",
"                              6.S.;.! ] O.r @.@.%.J w.x ;.;.;.;.*.*.%.%.#.r o.F.k ( ;.L q $...& W                               ",
"                              3 H.,.( K C.g } ;.;.R k x %.;...v ( ;.$.} %.c K D.w.b %.$._ -.$.i ;                               ",
"                                b.S.@.z Z.r.b ;.;.%._ @.;.;.G a % $.;.;.;.E e B.8.c ;.;.%.;.;.} i                               ",
"                                5.F.%.g c.z.g %.;.;.;.;.-.-.J p : R ;.;.;.@.c t w { @.$.-.;.;.;.E                               ",
"                                  s.;.R Z 8.v ;.;.$.%.;.;.-.J = : S ;.;.;.;.$.} } %.$.$.-.-.;.#.B                               ",
"                                  3 j.n.L b @.;.-.@.%.;.;.@.R q r ..;.;.;.;.;.;.$.%.-.;.;.;.| B $                               ",
"                                    @ z r.:.;.;.;.@.$.;.;.@.$.$.%.;.;.-._ S b ( %.-.;.%.@.Y ; X                                 ",
"                                      ` x 8.>.;.;.;.;.;.;.;.$.} %.;.-.S % i ; o 0 &.( c %                                       ",
"                                      f  .u m.-...%.;.;.-.%.;.;.$.} ) e ' [ Q w . %                                             ",
"                                        Q w l...e / ;.-.;.;.;.%.&.~ 5 # 2                                                       ",
"                                        - 7.>...r D ;.%.$.[ R v                                                                 ",
"                                          a.%.$.M ! ( D 6                                                                       ",
"                                            6 g e +                                                                             ",
"                                                                                                                                ",
"                                                    U.U.U.U.U.U.U.U.U.U.U.U.U.U.U.U.U.U.                                        ",
"                                          U.U.U.U.U.U.U.U.U.U.U.U.U.U.U.U.U.U.U.U.U.U.U.U.U.U.U.U.                              ",
"                                            U.U.U.U.U.U.U.U.U.U.U.U.U.U.U.U.U.U.U.U.U.U.U.U.U.U.                                ",
"                                                                                                                                ",
"                                                                                                                                ",
"                                                                                                                                ",
"                                                                                                                                ",
"                                                                                                                                ",
"                                                                                                                                ",
"                                                                                                                                ",
"                                                                                                                                ",
"                                                                                                                                ",
"                                                                                                                                ",
"                                                                                                                                ",
"                                                                                                                                ",
"                                                                                                                                ",
"                                                                                                                                "
};
