/* XPM */
static char *_77f27b9c7a04201f4b366510846af48QLPA6xNvVqaP4WQ8[] = {
/* columns rows colors chars-per-pixel */
"64 64 160 2 ",
"   c None",
".  c #62583D",
"X  c #7F7253",
"o  c #A97935",
"O  c #AC7F3B",
"+  c #837347",
"@  c #8C7046",
"#  c #8E7D4F",
"$  c #9C7B42",
"%  c #9E7C4C",
"&  c #A37E43",
"*  c #A97E41",
"=  c #A5803D",
"-  c #AD813C",
";  c #B0843E",
":  c #8E8053",
">  c #9B8653",
",  c #93835C",
"<  c #988759",
"1  c #9C8B5E",
"2  c #A58246",
"3  c #AB8542",
"4  c #AF8845",
"5  c #A4834B",
"6  c #A9854A",
"7  c #AE8A4C",
"8  c #B38B45",
"9  c #B48D4C",
"0  c #B6914D",
"q  c #B9934C",
"w  c #A68651",
"e  c #A78B53",
"r  c #AC8C54",
"t  c #A48C5B",
"y  c #AB8D59",
"u  c #B28E52",
"i  c #B18F59",
"p  c #A4925F",
"a  c #AD925E",
"s  c #B59354",
"d  c #BA9555",
"f  c #BC9A55",
"g  c #B4945A",
"h  c #B9965A",
"j  c #B6995C",
"k  c #BC9B5C",
"l  c #BFA15D",
"z  c #918461",
"x  c #9F8E62",
"c  c #A48D63",
"v  c #A59361",
"b  c #AB9463",
"n  c #AD9965",
"m  c #A3936A",
"M  c #AD9A6C",
"N  c #B39663",
"B  c #B59A63",
"V  c #BC9D63",
"C  c #B39769",
"Z  c #B59D6A",
"A  c #BB9E6A",
"S  c #B79F70",
"D  c #BEA264",
"F  c #BDA36B",
"G  c #BFA86D",
"H  c #B1A074",
"J  c #BCA572",
"K  c #BEAA73",
"L  c #B4A579",
"P  c #BEA77A",
"I  c #BDAC7A",
"U  c #C09E5D",
"Y  c #C2A25D",
"T  c #C19F64",
"R  c #C2A365",
"E  c #C2A967",
"W  c #C2A56B",
"Q  c #C8A669",
"!  c #C3A96D",
"~  c #C3A671",
"^  c #C4AB74",
"/  c #C9AD73",
"(  c #C0A778",
")  c #C4AE7A",
"_  c #C9AD79",
"`  c #C6B076",
"'  c #CAB175",
"]  c #C5B17C",
"[  c #CBB57E",
"{  c #CAB67E",
"}  c #C9B47F",
"|  c #CCB47F",
" . c #CAB37C",
".. c #CEB97F",
"X. c #D0B37E",
"o. c #D0B47D",
"O. c #D1B87C",
"+. c #AAA086",
"@. c #C6AE82",
"#. c #C3AD82",
"$. c #C3B080",
"%. c #C5B380",
"&. c #C7B381",
"*. c #C4B482",
"=. c #C6B582",
"-. c #C7B286",
";. c #C7B685",
":. c #C6B482",
">. c #C9B180",
",. c #C8B281",
"<. c #CCB380",
"1. c #CBB581",
"2. c #C8B681",
"3. c #CBB683",
"4. c #CEB781",
"5. c #CCB782",
"6. c #C8B486",
"7. c #CCB784",
"8. c #C9B583",
"9. c #C7B986",
"0. c #CBB882",
"q. c #CFB881",
"w. c #CFB983",
"e. c #CFB885",
"r. c #CEBA84",
"t. c #CDB886",
"y. c #CEB986",
"u. c #CCB985",
"i. c #C6B788",
"p. c #C9B78C",
"a. c #CFB988",
"s. c #CEBB8A",
"d. c #CDBA89",
"f. c #D2B986",
"g. c #D0BB86",
"h. c #D0BC87",
"j. c #D2BB85",
"k. c #D0BC88",
"l. c #D3BD88",
"z. c #D2BE8A",
"x. c #D4BD89",
"c. c #D3BD8C",
"v. c #D0BF8D",
"b. c #D2BE8B",
"n. c #D4BF92",
"m. c #D4C08D",
"M. c #D5C18D",
"N. c #DAC48E",
"B. c #CFC09C",
"V. c #D6C291",
"C. c #D8C292",
"Z. c #DBC791",
"A. c #DAC693",
"S. c #DAC897",
"D. c #DCC896",
"F. c #DCC699",
"G. c #DECB99",
"H. c #E2CE9B",
"J. c #E6D29F",
"K. c #E6D3A1",
/* pixels */
"                                                                                                                                ",
"                                                                                                                                ",
"                                                                                          B B A A                               ",
"                                                                                        D h W ^ ^ F                             ",
"                                                                                    Z j D A F t n ^ V                           ",
"                                                                                  B D F ! G J p v ] ~ C                         ",
"                                                                                  R G J Z M < t Z ) [ F y                       ",
"                                                                                  F B t 1 : 1 Z K ,.z./ u                       ",
"                                                                                  Z g a Z p v ^  .d.r.^ ~ B                     ",
"                                                                                    h _ K n K _ ] ] ^ ) :.[ ~ Z                 ",
"                                                                                    j ! ^ ) ] ^ ) ^ ^ ! ^ 1.w.X._               ",
"                                                                                      g V F J Z D ! ! E ^ ] ] r.g.,.@.          ",
"                                                      @ %     K                                 B h R / ^ ] ] ] 7.g.w.(         ",
"                                                      & 9 k Y /                                   7 k ~ ^ _ ] ] ) 1.r.! A       ",
"                                                      Q / > B F B.                                g s D W ^ ] ] _ ^ [ ' D A     ",
"                                                    k / v.6.&., +.                            ] 4.z. .W k D ^ ] ] ^ _ [ ~ k     ",
"                                                  F R / ;.$.m . z             ( ,.[ | <. .~ V _ A.S.C.x.' d f ^ :.] ^ ^ ~ k     ",
"                                              -.z.' ^ ] } ^ Z n G 4.r.] Z N W / / ! W ^ / / V V ^ r.v.d.] k 8 D ] :.) ^ W k A   ",
"                                        N F 1.m.0.[ ` ^ ] ) ! ' E 1.r.h.^ D l f 9 8 q 0 7 k ^ ^ F D [  ._ W s s ! &.&.] ^ j B   ",
"                      #.) #.^ F g r g j l ! ..} ] 1. .E ^ ) ^ ! D ] _ ^ D l q 3 = 0 f 8 9 ! ) ] D j ^ ~ ^ F 9 9 R ] &.] ^ F j   ",
"                  p.n.z.[  .~ k f k l Y Y Y Y R D R R R R ^ ] ~ h D D R R f f d D / D 0 D _ } _ k k ^ _ ^ V 9 k _ ] ] ] ) _ ^   ",
"                z.N.[ ^ _ ~ k k k k k f f f l l k f f Y R D  .^ k ! R D D / ..c.V.v.W h J &.} / f V ^ ^ W k k ^ ] ^ ] ) F B (   ",
"               .M.! F ^ ^ d k Y R D ! ! W ! ! / ! R Y f k Q ' ] R D E [ m.A.S.A.A.s.` h ~ 1.] ! f D ^ ! D R ^ &.^ A ^ V 7 y     ",
"            J h.^ l ! D 0 q f l D D D W ! O.M.G.G.G.M...E D ! ^ V  .m.S.G.D.A.V.m.s.` d !  .^ W h ^ K ^ / _ &._ j V V 7         ",
"            ( j.h d d d f R E ! ^ ^ R R / N.H.J.K.K.H.A.w.E D D ! u.v.V.C.V.m.v.v.d.] k W  .~ k V K ] ] ] ) &.G j d 7           ",
"            / Q 9 f k R ' r.u.9.:.^ W / r.A.A.S.D.A.m.r.[ _ ! E ^ :.r.k.v.v.z.z.d.r.1.F F ] W k F ! ] ) ) _ _ W h 9             ",
"            k 9 9 k / [ r.6.9.:.] ^ ~ w.z.m.V.m.N.m.u.]  .] ~ D / ^  .[ s.z.d.r.1.1.&.F R W D G K ^ ) ^ ^ _ ^ W j k             ",
"          s 9 8 q R  .0.:.:.*.] ^ W ^ 6.r.z.z.z.M.z.1.] ^ ! W R Q ~ _ ] 6.r.6.1.] ] ^ D k k F ] ] ! W W W W F A                 ",
"          V k f R /  .] ] ] ^ F D W _ :.1.1.1.1.1.1.:._ _ ~ l f R ~ ~  .1.1.] ] _ _ ~ Q 0 l ^ ] ! U k B B A                     ",
"        Z  ...E R D W E G V k f D A W / ] ,.:.] ] ] ,.] _ ~ k q R ~ ^ ] :.] ) ^ ^ _ ~ U 8 k ^ _ R V                             ",
"        _ D.c.] ^ G D k k V Q f q k T ~ _ ^ )  .] &.6.] ) ~ f 8 V _ _ ] ] ] _ _ _ ^ Q q q D  .~ D                               ",
"        g.F.6.] :.]  .^ ^ ] _ R 0 f V W _ _ _ _ ^ _ ] _ _ _ R 8 R ^ ^ _ ] _ _ _ ~ ! f q f F / G                                 ",
"        ~ g.] ] _ ] x.d.;.] ] ! d f k W ^ ~ _ _ ~ ~ ~ _ ^ ^ R q W _ _ ^ ^ _ ~ ! ! k q d h W ^                                   ",
"        r 9 W ^ ! ' Z.V.9.*.:.^ d f U Y ! ~ _ _ _ ~ _ _ _ _ W D W ! ~ ~ ~ ~ Q R V k k h k D                                     ",
"        g 3 d D ^ ..G.A.9.*.] ] d s k U R E ! ~ _ _ ^ ~ ~ W W D W D R R R R Y W R f h k s g                                     ",
"        B s d D ^ r.H.C.u.:.K _ k 0 9 U ! ^ ! W R W W D R  .[ D w.] ~ ! R d F ^ k q k d 9                                       ",
"        g W R E D ' D.V.:._ G / s U 4 s W ^ ] ^ k Q ^ _ ] v.x.R m.:._ _ T 9 G A f f f 8                                         ",
"        s R R E k R j.h.^ D / D d h s h k h F ^ k h V A A ~ ! s W A h h 9 k F V U 0 8 *                                         ",
"        h Y k V k q R R h k d 9 k d 8 k R ! F J ^ d V W W W k s D ! W k d ~ ^ F j q -                                           ",
"      g d 0 U W W 8 8 8 9 ; o 8 U d 9 f k B ^ ] ] j W _ _ [ j.W h. .^ ! d _ ~ G _ 9 &                                           ",
"        7 T o. .^ h 8 q d - O 7 h R h k F W A ^ :.D k ~ ~  .o.h  ._ ! V V ~ W ] ~ 9                                             ",
"        j N.A.z.] ! h d W V s   e 9 T ^ ^ _ ^ ^ ] ^ d 9 h k h 9 d h h u ^ ^ ! ] ^ g                                             ",
"        / J.H.N.] ] W 8 g ~ k     6 k  . .^ ^ ^ ^ ^ s h ~ _ ~ k ' _ W j ^ ! / :.^ g                                             ",
"      Z ' H.H.A.1.:.] d u _ W A     k  .,.] G R F F 8 V _ ) ^ D [ ) W d k R ] ;.~ r                                             ",
"      B ! m.D.A.6.6.1.F u _ W J     f / ^ ] ^ k h V 9 k ^ ] ) F _ _ W 0 0 R ] ]  .D y                                           ",
"      N V  .m.m.6.1.6.^ d ^ F       9 W _ ] _ G s k h j  .:.} ^ ] 1.D 9 k _ ] )  .' k g                                         ",
"        d R [ s.] &.;.) j ! A       g ~ ,.] :.6.^ V D ^ ,.:.:.] ] ] V B ] :.:. .^ ~ k s                                         ",
"        u R D [ / _ ,._ k V J     y h V ] ] 1.6.1.] _  . .] ] ^ ] ] _ ] _ F ) 1._ ^ ^ j y                                       ",
"        r k D ^ W ^ ] ] V A       5 7 ! ^ ] ,.^ ] :.&._ ~ _ _ _ ] ) &.:.^ F B ] ] ^ _ _ C                                       ",
"          k W ^ W ^ } ] k A       & h  .^ ] ( J ] _ / V j ~ ^ _ V k _ 1.] ^ B F ^ ^ ^ _ _                                       ",
"          k U R V ^ :.^ u         & !  .^ ) A ( 6.] W U 6 6 s 7 7 k ^ :.] ^ V r F ^ ^ _  .C                                     ",
"          d 9 s D ] ;.^ s         5 / _ ^ ) g ) 6.] E j 5     $ 2 s W  .1.} ^ A g F ^ ^ ^ C                                     ",
"          r j G ] ;.;.] A         N / _ _ F A  . ._ A               y J ~ G W ^ ] ] ] ] ] N                                     ",
"          r R 1.u.:.] ] ) P       C W } ] W V D B a                         y F _ ^ ] ] ) F                                     ",
"          s W r.6.:.] } :.I       C  .;.} V 7 e                                 B _ ] ^ B g                                     ",
"        i d ! 9.6.} J J :.;.M     a A F G D B b                                 F 6.;.] ^ N                                     ",
"        s k ~ 6.:.v + # M P b     e D ^ ^  .A                                   Z  .I ] A t                                     ",
"        g h W } ] b , L 1 1         F ) ^ ^ n                                   y D ^ K t                                       ",
"        J B F ] 1.) I i.m           w j R N                                       r ^ J                                         ",
"            m x M I u.L             $ 2 g N                                       a ` _                                         ",
"                X , H             y g G _ A                                       Z 1.] Z a                                     ",
"                                  a A S S Z                                       Z F J F N c                                   ",
"                                                                                                                                ",
"                                                                                                                                "
};
