/* XPM */
static char *_63d88d95b2c44b7b5f04973dcc2a9f6[] = {
/* columns rows colors chars-per-pixel */
"64 64 241 2 ",
"   c None",
".  c #161B0E",
"X  c #1D1B15",
"o  c #201D16",
"O  c #241E1B",
"+  c #2A1F1E",
"@  c #1D2412",
"#  c #232215",
"$  c #2B2B16",
"%  c #24221C",
"&  c #2A231D",
"*  c #2A2C1B",
"=  c #262A16",
"-  c #342B1B",
";  c #392E1C",
":  c #2C3216",
">  c #2C3519",
",  c #333419",
"<  c #343C1A",
"1  c #37371A",
"2  c #262421",
"3  c #2B2523",
"4  c #2D2A26",
"5  c #2E2929",
"6  c #332B24",
"7  c #332C2B",
"8  c #362A26",
"9  c #3C3324",
"0  c #3C342B",
"q  c #37372A",
"w  c #332E32",
"e  c #3A3635",
"r  c #2F3329",
"t  c #413A1E",
"y  c #402C1E",
"u  c #443525",
"i  c #443C24",
"p  c #423A2D",
"a  c #493829",
"s  c #533D2C",
"d  c #563B29",
"f  c #4B3D33",
"g  c #433C3D",
"h  c #473C35",
"j  c #493427",
"k  c #2D4D17",
"l  c #3C421D",
"z  c #37461C",
"x  c #3A581F",
"c  c #346518",
"v  c #37771B",
"b  c #3A4922",
"n  c #3C5823",
"m  c #3B4835",
"M  c #43491D",
"N  c #545B1F",
"B  c #4E6D1E",
"V  c #4D432D",
"C  c #464923",
"Z  c #53442C",
"A  c #58472D",
"S  c #485426",
"D  c #535323",
"F  c #535B23",
"G  c #585729",
"H  c #4A4538",
"J  c #534334",
"K  c #5C4434",
"L  c #544C33",
"P  c #5D4B34",
"I  c #5B463A",
"U  c #5D4B3A",
"Y  c #54463B",
"T  c #5E5335",
"R  c #585839",
"E  c #4A5932",
"W  c #624C35",
"Q  c #644D3B",
"!  c #6A4D3A",
"~  c #614534",
"^  c #635335",
"/  c #635C35",
"(  c #64523B",
")  c #6B533C",
"_  c #685C3A",
"`  c #71553D",
"'  c #704E39",
"]  c #476626",
"[  c #5B6425",
"{  c #5A6629",
"}  c #597A29",
"|  c #596935",
" . c #577635",
".. c #4D7D26",
"X. c #646B26",
"o. c #6A7427",
"O. c #727B2A",
"+. c #737B25",
"@. c #676738",
"#. c #74663D",
"$. c #687734",
"%. c #747A39",
"&. c #6A701C",
"*. c #3F3D43",
"=. c #453D41",
"-. c #494143",
";. c #454042",
":. c #544945",
">. c #5E5544",
",. c #665141",
"<. c #6C5442",
"1. c #6C5A42",
"2. c #6A5A4B",
"3. c #745B45",
"4. c #725C4B",
"5. c #755A47",
"6. c #6C5B53",
"7. c #705E57",
"8. c #587040",
"9. c #6A6344",
"0. c #7C634C",
"q. c #776347",
"w. c #767747",
"e. c #7A6554",
"r. c #6E774B",
"t. c #82674E",
"y. c #827A4C",
"u. c #856A53",
"i. c #876B57",
"p. c #8D725C",
"a. c #857755",
"s. c #93745C",
"d. c #947B5C",
"f. c #8C7162",
"g. c #937562",
"h. c #9B7C64",
"j. c #9D7F6B",
"k. c #957964",
"l. c #A37D62",
"z. c #3B891A",
"x. c #3C951B",
"c. c #3E931F",
"v. c #43991C",
"b. c #43AB1A",
"n. c #46B91B",
"m. c #498528",
"M. c #558928",
"N. c #5A932A",
"B. c #4B9433",
"V. c #7D842B",
"C. c #678738",
"Z. c #769C3C",
"A. c #6C8B36",
"S. c #49BA24",
"D. c #58A63B",
"F. c #5AB93B",
"G. c #4FB227",
"H. c #65AB28",
"J. c #67B52A",
"K. c #72BA2C",
"L. c #68B638",
"P. c #77B93A",
"I. c #6DA935",
"U. c #6AD31D",
"Y. c #5CF818",
"T. c #71ED1F",
"R. c #4ACA22",
"E. c #52C921",
"W. c #52D429",
"Q. c #58C839",
"!. c #59DB34",
"~. c #4ED52E",
"^. c #6BC825",
"/. c #7CC72B",
"(. c #67D729",
"). c #77D927",
"_. c #67C838",
"`. c #78C735",
"'. c #69D736",
"]. c #76D836",
"[. c #5AE435",
"{. c #5CEC2D",
"}. c #79E62A",
"|. c #7AF529",
" X c #6DE434",
".X c #68E835",
"XX c #75E833",
"oX c #6BED2C",
"OX c #558946",
"+X c #599744",
"@X c #4E8543",
"#X c #798644",
"$X c #7C9744",
"%X c #6B8544",
"&X c #57A345",
"*X c #5BB242",
"=X c #66A943",
"-X c #75AD42",
";X c #7ACC41",
":X c #5DD441",
">X c #858B2B",
",X c #8C942B",
"<X c #8A962A",
"1X c #93992D",
"2X c #899233",
"3X c #898E33",
"4X c #99A42E",
"5X c #96A232",
"6X c #A4A82C",
"7X c #A5AC33",
"8X c #ACB733",
"9X c #83D52D",
"0X c #82D637",
"qX c #86E92B",
"wX c #85F12A",
"eX c #86E936",
"rX c #97EE35",
"tX c #87F232",
"yX c #99F236",
"uX c #95ED2B",
"iX c #A6F438",
"pX c #858549",
"aX c #88974C",
"sX c #8C8855",
"dX c #928859",
"fX c #8C9453",
"gX c #8C9D53",
"hX c #97955A",
"jX c #96944C",
"kX c #8CA74C",
"lX c #88B545",
"zX c #91B14E",
"xX c #B2B345",
"cX c #9D8468",
"vX c #A48165",
"bX c #A4836B",
"nX c #AB866A",
"mX c #AB8669",
"MX c #A28670",
"NX c #AEF445",
"BX c #8FDB40",
/* pixels */
"                                                                                                                                ",
"                                                                                                                                ",
"                                                                                                                                ",
"                                                                                                                                ",
"                                                                                                                                ",
"                                                                                                                                ",
"                                                                                                                                ",
"                                                                                                                                ",
"                                                                                                                                ",
"                                                                                                                                ",
"                                                                cXk.k.h.bXnX                                                    ",
"                                                            j.bXcXvXmXnXnXnXnXnXnXbX                                            ",
"                                                        MXbXbXbXnXmXmXnXnXnXvXvXl.l.h.k.g.g.j.                                  ",
"                                          j.d.d.h.h.p.0.p.s.g.j.vXnXvXl.l.l.l.h.h.l.l.l.g.f.e.:.                                ",
"                                      cXh.h.h.vXvXh.u.K s s 3.t.u.p.s.l.vXmXnXvXbXvXk.f.7.h 7                                   ",
"                                  p.p.s.g.g.s.t.<.P K K K K ` W P ! ) 5.u.s.bXbXnXk.7.g 5 O 3 e                                 ",
"                                  <.K ! ! Q ~ K I W Q ) ) ` ) J ! ( ( ! ) 3.P ) 0.:.5 % 3 7 e e *.                              ",
"                                  <.Q ! ) ! ) ! ! ) 3.` ^ _ T L _ 9.#._ ) ^ & - y 6 4 w e e g g =.=.=.                          ",
"                                      J s K ! ) ) ) Z l k ]  . .M.$.@./ ^ L * a ~ W I -.;.;.;.;.=.=.=.=.                        ",
"                                      ,.s u 9 9 i C : k c z.8.B.^./.I.} @.S > J ! K K ,.>.:.-.-.H g g g =.                      ",
"                                      4.` ) P Z V b k c v m.@XL.eX`.I.D.J.H.M.E T Q U W ( 2.:.;.-.g g g -.:.2.i.f.              ",
"                                        U U ( ) _ S k c v m.D.].`.OX@X&XL.H./.H.} @.^ W ! W ,.:.=.g :.2.e.p.h.j.7.-.            ",
"                  m             H       4.P J Z L S k c v B.D.XXL.OX+X=X=XL.D./.K.M.@._ T U W Q 6.e.p.h.j.k.e.:.7 w             ",
"                      m       h     m     ^ W ^ P R n v z.B.F.].`.+X&X&XOX=XF.L.uX].C./ / ) ( ! <.5.u.h.k.:.e 7 7               ",
"                      H q 0   f   L q   R T L ^ / @.n v z.G.Q.]._.F.:X;X=X_.'.F.].'.+X| G T ) ) Q ' ! Q :.7 7 5                 ",
"                        4     J f 9     U P L T / @.n v x.G.Q.XX'.Q.Q.*XL.'.eX'.'.'.&X8.S C i a Z K Q ) I 4 &                   ",
"                        e q H f 6       4.) ^ ^ / @.] z.x.S.~..XtXqX].F.Q.'.eX X X.XD.OX%.@.^ Z i u 9 9 8 % &                   ",
"            H m   0 4 9 p & 6 -         e.q.q.q.#.$.] z.b.S.~.[.oXwXtXeXXXeXeX.X.X!.D.OXC.@.#.q.^ W V 3 & 3                     ",
"                        % # # &         1.( _ #.w.#Xm.z.b.n.R.W.!.}.wXrXrXrXwX{.[.:X&XOXr.G L P A ^ J 3 & 3                     ",
"                          & & =     a.3.) ^ ^ / @.$.m.z.b.n.n.R.!.[.[. XXXXXoX[.[.Q.&XOX%X@.T ^ A A 0 3 3 5                     ",
"                            ; = i | @.G F D G / $.A.M.x.b.n.S.R.W.!.[.[..X.X X'.!.Q.&X+X$X@./ ^ W ! J 7 3 4                     ",
"                          V i $ : C F [ X.N F { ] } M.v.b.n.E.W.(. X X.XXX X X'.Q.Q.&X=XZ.@./ ^ P ( f 7 3 3 w                   ",
"                        [ D C , : > z S ] ] ] ] c B v.v.b.S.E.E.(.}.eX}.XXXX].'.'._.P.Z.A.@./ ^ P ( f 7 4 7 w                   ",
"                    3X2XV.F M , : : b b n x n ] ..N.H.J._.'.(.}.}.rXiXqX}.}.}.].`.`.lXZ.#Xw.#.T J ^ p r r 7 7 7                 ",
"                { O.1X4X,XO.F M < < b n b n  .C.Z.P.P.`.).).}.}.wXuXyXtXeXeX].].`.`.A. .| @.y.Z L L g w 4 3 3 4                 ",
"              2X5X6X8X8X6X<X+.$.@.| z b E  .C.-XP.K.^.U.).qXrXrXyXiXyXwX}.qXeX0X`.K.N.] l ^ Z 9 a W h 5 3 3 3 3 w w             ",
"            %.,X7X7X7X4X,X<X2X#XfX@.b E 8.%X$X-XH.9XU.qXiXyXtX|.wXyXNXyX}.}.(.0XK.N.N.$.1 , ; P W P p 4 4 4 O 3 3 3             ",
"          S F F o.+.,X,X1X1X5XaXhXw.S 8.w.aXkXlXJ.).).uXyX|.Y.Y.Y.tXNXiX|.}.^.0XL...x S i & t D D T f 7 4 O O & & O             ",
"          b : : 1 D >X1X5X4X1XpXsXsXR R w.fXgXkXlXK.^.}.qXuXtXyXiXNXrXqX).`.0XlXlXZ.{ , $ * S [ X.X.G q & O O O X               ",
"          A - j W X.V.>X>X,X>XO.w.a.r.>.r.sXfXgXkXkXlXP.`./.).9X9X9X`.P.lXzXkXaX$X$X#XS $ * q l F o.o.[ C r #                   ",
"      q.W A K ' G S C D F F M < L u.a.w.>.| pXsXfXgXgXkXzXzXlXlXlXzXkXkXgXaXpX#X#X#X$.C - $ % * z l S b z > =                   ",
"      ( ( ^ A W t > $ , , $ = ; 0.d.e.H q R pXdXdXfXfXaXaXgXgXaXfXfXfXpXpXw.w.w.pXA.o.N M l 1 l C S C < @ . @ @ %               ",
"        I 3.1.V d a u j s 9 - q.h.e.0 H 9.a.dXdXcXhXhXdXdXsXy.#XsXdXdXdXsXsXhXhXjX>X&.+.+.X.o.o.O.X.S l % X . . o 3             ",
"          1.1.P Z s a d ~ ~ 0.g.e.p p Y ^ ) 3.0.s.dXdXa.dXy.w.9.@.w.pXjXxXxXxX7X4X1X,X>X+.O.V.+.X.[ S b > 2 3 O 2 % 2           ",
"              P L ^ T V A u.k.e.7 0 U 0.t.t.0.q._ ^ ^ q.d.d.>.$ 1 C X.,X8X8X6X,X,XV.o.X.O.>XV.o.F S > * = % 5 % %               ",
"                    ( 1.i.g.e.p f U U W ! ) 3.0.0.q.q.t.d.a.0 # - t M F +.,X,XO.[ M < $ 1 M S < , = @ . . X 3 O % 7             ",
"                      i.g.u.0 6 J 1.3.0.t.0.1.( ^ ^ 1.p.i.2.6 O & u a i M F [ M < = # % # # * # # X o O O O O O 2 4             ",
"                    p.p.e.f f U ( ( Q Q Q ) 5.0.0.1.0.s.i.h & O & u K d t < l > = # & 4 3 % X o 3 8 7 7 5 O O 4 5 %             ",
"                  u.0.0.f 3 a K Q 5.0.u.t.0.3.U J ^ s.s.6.8 + X o & j s d ; = o # 8 0 7 6 4 & 3 6 7 7 7 3 o 2 4 3               ",
"                4.4.4.p J ,.5.<.Q ) Q Q ) 5.u.0.3.u.s.p.h O o X O O & 8 y y - 8 9 f h 7 3 3 + + & & & 3 % 4 4 2                 ",
"                  ,.Y     U <.<.0.u.p.t.) P s s Q s.p.4.3 O % 2 3 4 6 0 i a u u j u 8 % % % 3 4 r 6 6 q e e 7 2                 ",
"                                  K <.5.0.0.4.,.<.u.u.H % 3 %         p V U L L P V V h 0 5 3 3 4 6         7                   ",
"                                          J I I 4.3.4.0 3 2                   I U J Y Y e 2                                     ",
"                                                ,.3.0.w                                                                         ",
"                                                                                                                                ",
"                                                                                                                                ",
"                                                                                                                                ",
"                                                                                                                                ",
"                                                                                                                                ",
"                                                                                                                                ",
"                                                                                                                                ",
"                                                                                                                                ",
"                                                                                                                                ",
"                                                                                                                                "
};
