/* XPM */
static char *_1407a3fadec4302867a6066573e0f1e[] = {
/* columns rows colors chars-per-pixel */
"64 64 251 2 ",
"   c #160700",
".  c #191805",
"X  c #1E1E11",
"o  c #030600",
"O  c #28190A",
"+  c #281C12",
"@  c #351A10",
"#  c #1E2408",
"$  c #28260C",
"%  c #2C2514",
"&  c #2C2B13",
"*  c #2A2817",
"=  c #332C15",
"-  c #332C1B",
";  c #3A2C1B",
":  c #362417",
">  c #2E3315",
",  c #34331B",
"<  c #3A341E",
"1  c #3A3C1E",
"2  c #353817",
"3  c #2B2B0E",
"4  c #3B2D24",
"5  c #352B25",
"6  c #353523",
"7  c #3C3522",
"8  c #353A22",
"9  c #3C3B24",
"0  c #3D3C2C",
"q  c #3B352B",
"w  c #362E2A",
"e  c #44391D",
"r  c #452A19",
"t  c #433423",
"y  c #423B24",
"u  c #433429",
"i  c #443C2B",
"p  c #4B3C2C",
"a  c #4B3625",
"s  c #453D32",
"d  c #4B3D33",
"f  c #473A38",
"g  c #553E35",
"h  c #4A3325",
"j  c #38471A",
"k  c #2F4414",
"l  c #3E4323",
"z  c #3D432A",
"x  c #3E4A28",
"c  c #3C4C2B",
"v  c #454226",
"b  c #434A24",
"n  c #44442B",
"m  c #4A432D",
"M  c #454B2C",
"N  c #4B4B2C",
"B  c #4A4425",
"V  c #55452D",
"C  c #48552A",
"Z  c #52582F",
"A  c #454432",
"S  c #4C4433",
"D  c #464A33",
"F  c #4C4B34",
"G  c #4D443A",
"H  c #4D4B39",
"J  c #534534",
"K  c #534B33",
"L  c #5B4C36",
"P  c #53453A",
"I  c #534C3B",
"U  c #5B4B3B",
"Y  c #5A463C",
"T  c #4D533A",
"R  c #4C5634",
"E  c #535235",
"W  c #54543C",
"Q  c #5B543C",
"!  c #5B5A3C",
"~  c #565836",
"^  c #624D3C",
"/  c #63543C",
"(  c #65573C",
")  c #596438",
"_  c #63653F",
"`  c #62703F",
"'  c #554C43",
"]  c #5C4C43",
"[  c #574944",
"{  c #565442",
"}  c #5C5343",
"|  c #5C5B44",
" . c #5C544A",
".. c #5D5A4B",
"X. c #565844",
"o. c #5E5953",
"O. c #4E4843",
"+. c #634D43",
"@. c #635544",
"#. c #635B44",
"$. c #6B5C45",
"%. c #63554B",
"&. c #635C4B",
"*. c #6A5C4B",
"=. c #6A5445",
"-. c #755C45",
";. c #735D4C",
":. c #76594B",
">. c #655B52",
",. c #6C5D53",
"<. c #6A5A55",
"1. c #735D53",
"2. c #7B5D54",
"3. c #5D6343",
"4. c #646245",
"5. c #636C43",
"6. c #64624C",
"7. c #6B634B",
"8. c #6B6B4C",
"9. c #686647",
"0. c #73644C",
"q. c #7A654C",
"w. c #736B4E",
"e. c #78674C",
"r. c #697548",
"t. c #73774E",
"y. c #6B6453",
"u. c #6C6B53",
"i. c #6D635A",
"p. c #686656",
"a. c #736453",
"s. c #7C6454",
"d. c #736B54",
"f. c #7B6C53",
"g. c #73655B",
"h. c #746C5B",
"j. c #7B6C5B",
"k. c #7A655B",
"l. c #6E7357",
"z. c #747254",
"x. c #7B7355",
"c. c #75735C",
"v. c #7C735B",
"b. c #7D795D",
"n. c #787B55",
"m. c #756C62",
"M. c #7A6D63",
"N. c #756963",
"B. c #7C7463",
"V. c #7D7A63",
"C. c #7D7369",
"Z. c #777663",
"A. c #6F6862",
"S. c #815F54",
"D. c #836C55",
"F. c #846C5B",
"G. c #876857",
"H. c #837256",
"J. c #83735C",
"K. c #8A745B",
"L. c #837B5C",
"P. c #8B7B5E",
"I. c #8A7456",
"U. c #927A5D",
"Y. c #806D4F",
"T. c #876C63",
"R. c #847463",
"E. c #8A7563",
"W. c #847B64",
"Q. c #8B7C64",
"!. c #83756C",
"~. c #857B6B",
"^. c #8B7C6C",
"/. c #8D766D",
"(. c #917C63",
"). c #967C6A",
"_. c #8A7D72",
"`. c #857871",
"'. c #947B73",
"]. c #7A8555",
"[. c #7F8267",
"{. c #858264",
"}. c #8B8164",
"|. c #84826B",
" X c #8C836B",
".X c #8C8A6D",
"XX c #838F61",
"oX c #918266",
"OX c #93846C",
"+X c #938A6D",
"@X c #9A8A6E",
"#X c #9B836A",
"$X c #8C8374",
"%X c #8D8B72",
"&X c #8A8476",
"*X c #938474",
"=X c #948B73",
"-X c #9B8C74",
";X c #92847A",
":X c #958C7C",
">X c #9B8C7C",
",X c #9B8776",
"<X c #949275",
"1X c #9C9175",
"2X c #96927A",
"3X c #9B937B",
"4X c #9D997D",
"5X c #949875",
"6X c #A1876E",
"7X c #A38C73",
"8X c #A28D79",
"9X c #A88B76",
"0X c #A3947B",
"qX c #AD947A",
"wX c #A59A7E",
"eX c #A89579",
"rX c #B1957D",
"tX c #80875D",
"yX c #9B8D83",
"uX c #968F83",
"iX c #9D9382",
"pX c #9D9587",
"aX c #A39584",
"sX c #A49B84",
"dX c #AC9C83",
"fX c #A69B8A",
"gX c #AB9B8B",
"hX c #A79487",
"jX c #B29B87",
"kX c #AA9E92",
"lX c #A8938C",
"zX c #ADA28C",
"xX c #ABA488",
"cX c #B3A38C",
"vX c #B8A38A",
"bX c #ACA694",
"nX c #B2A493",
"mX c #B4AB94",
"MX c #BBAB94",
"NX c #BBAC9B",
"BX c #B8A698",
"VX c #BCB29C",
"CX c #B8B298",
"ZX c #BDB8A3",
"AX c #B9A8A1",
"SX c #C4AA9B",
"DX c #C2B29B",
"FX c #C3B4A2",
"GX c #C6B9A8",
"HX c #CAB8AA",
"JX c #CCC3AE",
/* pixels */
"p.o.o.' [ %.Y g : r r h a a r O s f u q O.<.<.} !.$X,X-X#XOXOX@X-X@XeXxXdX0X-X>Xf.Q.    P R.a.^.>XR.j.R.a.J J *.] ,.h.m.M.C.m.>.",
"O.o.A. .q 4 h ^ T.).9XdXjXqX#XF.P w 5 f >.A.g.g.a.j.^. X^.Q.Q.Q.Q.}.@X0X0X+XQ. XE.*Xt u a.^.j.^.j.j.R.~.R.a.%.] %.P P  .%.G s G ",
"p.i.o.d 4 g /.BXSXSXSXvXjXvXvXjX!.f 5 [ N.i.>.g.} *.j.R.W.E.E.Q.Q.Q.OX-X-XOXQ.W.E.~.P a.M.R.j.j.&.d.B.R.R.R.i.P i P d 4 d %. .4 ",
"&.' G i.;XhXNXSXjXjX9X).).6X7X8XyXo.f  .i.>.] &.@.*.j.R.E.Q.Q.Q. X}. XOX=XOX^.^.B.y.J B.j.M.k.i.h.v.h.a.y.a.,.} P %.>.%._.AXkXR.",
"M.' % ,.gXnXvX).).6X9X9XqXqX7X#XC.>.O.'  .>.>.,.,.y.h.j.J.W.Q. X X~.W.W.W. X^.~.~.&.u M.h.C.!.m.~.c.h.u.&.}  .y.] 7 d ;XFXBXyXlX",
"iXy.% U ^.).jX9X9X9X9X9XqXqX6XQ.&.>.' d G &.,.&.y.y.a.d.j.J.E.W. X~.V.B.V.~.~.!.!.&.- y.g.`._.B.Z.l.h.c.y.} } y.t - J _.hX/.g.k.",
"B.y.a J.>XJ.9X).rX7X(.I.U.#XU.H. . .' s A {  .} &.*.*.y.d.j.v.v.B.B.B.h.B.~.C.h.h...% ' >.C.C.i.6.p.u.p.6.6.| Q 6 *.*X*X_.'./.T.",
"~.d.; *.J.=.#X#XG.D.D.K.#X7X(.e.I H s s G {  .| } } *.y.d.j.f.d.y.p.p.p.i.m.i. .>.>.- I >.m.i.&.X.6.6.T W 6.| i i *.yXgX'.T.'.nX",
"W.#.V 0.0.$.(.).K.K.K.K.K.J.f.w.u.X.A i A I | 6.S } *.#.Q @.*.7.y. .y.y.G G &. .h.A - H p.y. .} X.T R T W W I S i y.*X^.R.>X>Xj.",
"b.#.L f.f.$.E.K.(.K.D.f.0.$.Q K } { H M A F W W m } 7.*.@.*.*.&.y.i.I H C.m.G G  .S A I I I } 6.| T R F F n 9 , % I ^.,XM.j.R.R.",
"u.Q K 7.7./ f.0.J.f.0.0.0.7.#.W F W H 9 6 v F F n F I F m m m m - s q 4 d s q I i m S m 7 6 < < 8 2 & 3 > , 9 < y Q v.~.h.*.a.R.",
"F v < Q Q Q f.7.$.@.@.#.#.#.W M F F v , 9 W y.y.| #.Q m i m S S s % S P + S ;X:XgXzXfXpXaXiXJ.Q M n n F 6.V.2XpX|.B.*.} @.@.} %.",
"9 , & m F I a.@.7.*.7.6.&.{ D 9 M n 9 l ! V.%X X3X3X2X=X=X2X3X:X^.d u P @.iXJXVXGXFXMXnXMXCX1Xw.N E | z.|.pXmXCXmXfXy.7 i S i 7 ",
"W F 9 n 9 7 S = p S I W { W T T n l v W u.b.c.8.| 6.u.c.W. X~.v.B.k.; ; yXNXhXBXzXnXcXwXwXxXdX1Xb.{.<XxXbXbXxXxXbXCX|.m 9 9 6 m ",
"%X%XZ.Z.6.| &.y 7 i n 0 6 8 z T n 1 l ! 8.3.W F 8.u.u.d.B.~.V.h.%.^.U J gXgXE.cX^.OX+XOXQ.}.oXoXw.z.L.{.{.V.c.z.2XxXV.F F 0 A c.",
"ZXJXZXJXZXZXGXiX3X:X|.6.A 6 0 D 9 > 1 | 8.| | 8. XV.u.| #.y.y.*.@.a.@.%.^.,XR.#X*XOX+X1X0X@XP.f.d.d.d.w.d.v.{. X X X| n W A W pX",
"1XsXDXJXCXMXMXgXFXFXZXNXbX$X&.i S & F | 4.4.K d.z.7.7.y.d.y.&. .,.U p a.k.a.>XE.*XW.^.-X1XOXOX1X8.b ! ! 4.Q.J.Q.@XJ.@.a.P % #.B.",
"Q.+XcXDXCXFXJXHXGXFXFXFXNXgX*Xj.y.S H 9 9 F y E ! K m n m S S P U u t *.a.*.^.*X-X^.OX3X1X XJ.b.8.b E W #.J.J.Q.8X).;.s.@.; &. X",
"-X-XdXcXdXgXMXnXgXgXhXgXgXaX*XB.C.i.&.7 = n y B K N y 9 < 7 u a ; O ; U j.j.*.R.Q.j.f.Q. XW.f.d.u.M K E ( v.J.E.,X,Xs.s.a.p @.:X",
"aX-X0XsX-X,X>X,XgXgXgXnXnXaX_.M.m.m.i.I y m K Q #.w.x.v.v.v.j.a.*.J p t a.R.J @.R.a.7.f.W.W.J.v.4.n M W #.j.E.R.E.*Xa.,.k.Y } iX",
"=X^.=XsXaXaXgXfXfXhXkXBXnX:XM.,.%.>.>.%.S y / v.OX0XcXMXMXVXMXcXBXgXR.t p @.a L j.0.0.f.K.J.w.7.F 9 7 I #.h.^.R.k.R.a.%.g. .} pX",
">X^.;XfXaXiXaX>X^.!.;XpXyXC.>.] %.i.%. .S 7 d.1XwXcXcX0X0XdX0X-X,XnXgX*.t t y L a p K $.0.7.L m F 0 < I &.a.^.B.,.,.a.%.,.%. .pX",
"fX$X$X>X;X^.!.B._.!.!.;X;XM.i.i.>.C.&.} m m Q.1X1X7XoXf.e.D.f.$.$.W.;X~.J : J Q V L $.f.K.K.f.0.b.y.H &.&.&.~.g.,.] g.>.]  . .;X",
">XB.B.;X;X_.$X_.`.M.g.C.C.i.<.A. .C.&.I S Q +XQ.P.P.H.e.f.Q.K.e.W.h.*.v.J % @.0.cXcXcXvXMXDXDXCXmX3Xy.g.y. .B.>.>.G i.>.G [ ] `.",
";Xj.:X$XB._.B._.`.C.>.] <.i.<.i.i...{ H y K z.L.P.P.P.H.K.P.#X-XsXW.*.#.J t Q Q.dXdXjXdXwXwXvXMXnXaXy.I y.6.I '  .I G ' G G  .N.",
"R.@.a.&.%.h.i.M.,.g.<.i.M.g.[ G ..X.} F v ! x.x.P.P.P.J.H.J.K.K.=Xv.7.7.Q N $.=X1X0X-XOX@XdXvXMXMX;X@.J &. .S I ..G 0 A G G  .i.",
"*.m I } } *.} } y.i.&. .<. .d i F R F l 1 ! n.z.}.}.P.P.J.J.F.j.b.8.7.7.#.L a.1XOXoXJ.e.K.eXrXrX0Xj.p y I I A W F A 0 0 6 - s >.",
"#.S I } } #.} I  .&.I I %.} G S F C M 2 > ! ].n.L.L.v.x.j.j.j.f.y.#.#.4.Q K w.1X}.J.f.D.K.(.#X#X-XR.U 7 y S F F { H D H A 0 G &.",
"K y < y , - n i 7 S H } y.&.H F R R R x b 5.tXn.x.w.7.$.*.a.a.a.d.4.| ! K N 7.+XQ.H.J.7X7XU.U.@XvXjXOXQ < i D 9 T z 6 A H S i S ",
"K E Q 7.Q n K 9 m H m i I S 9 l C x C Z C ) r.5.n.w.4.#.*.,.1.,.h.4.Q E N N 7.}.P.H.oXjXvX7X6XqXvXcXsX7., 1 M 8 & 8 D H 9 & i &.",
"W..X+XcXsX{. X8.#.#.K i S S F W C k j C b C Z Z 5.4.Q } &.,.,.<.8.W M B B N ( J.f.H.P.@XqXrXqX7XqX@X+Xf.y > l z 8 T l.l.X.F h.fX",
"0X+Xf.}.W.x.=Xv.E 4.7.u.W.W.v.V.) j k j k j C ! N B n S } %.%.} | M 9 1 y B ! d.9.x.x.e.P.rXeXK.vXQ.Q.Q.K $ , z 3.F A | c.|.;XiX",
"K.e.f.e.L #.x.4.4.Q Q d.W.v.7.#.E ~ M 2 2 n M 9 * & % * 4 d P G F N M l l M R R 3.z.L.x.v.}.}.J.-XQ.v./ = v 6.6.S 7 i V.M.a.>X*X",
"D.0.D.D.( Q 4.E ! 4.9.Q m y e ; 8.u.u.| &.u.u.&.} } I s i i u - 1 2 > # # 3 x R 5.l.n.L.b.v.L.}.0.0.W.W.7.d.V.d.i 6 d !._.k.'.T.",
"-./ e.P.w.#.| W & v m 9 y Q a.d..X2X2X2X3XfXaX:XzXbXbXfXfXgXhX:X{.{.z.) b l R 3.8.5.z.b.z.Q L #.7.@.$.#.K Q y.&.*.I S *.1.,.T.1.",
"D.0.F.*X^.y.4.8.W M < y 7.>XzXzXcXCXCXCXVXGXZXmXnXNXVXFXGXJXHXFXmXxXxX.X8.N l l l b E 4.9.! E L W.0.U n y F &.y.V.h.&.] ] %.M.k.",
"=.^ ^ *.@.m 9 F u.M 9 4.:XnXNXVXCXCXCXCXCXVXVXmXmXNXDXNXFXFXNXcXdX1X=X+Xb.! 1 > M M M v N E B = V m t y m I } 6.y.V.V.%.+.1.1.g.",
"U ^ U ] @.K m } 7 * y v.iXiXaXmXxXxXsXsXxXzXzXzXMXDXDXFXGXHXHXFXgX-XoX+X+Xz.E v b M 1 $ = v e $ : - 3 = i v m W y.$X_.S u Y d P ",
": p u u J i = 9 i 9 I h.~.B.c.W.-X+X@X1XwXdXxXcX-X-X8X0XgXMXDXSXdX#XE.OXOXd.K 9 $ & 9 K 9.v.W.W.B.b.#.K Q m 0 { y.&X_.4 : d : : ",
",._._.B.!.g.I I S S S | c.|.|.W.}.}.+X0XxXcXvXvXMXMXcXdXjXBXMXBX6XE.K.@X-Xd.m < F | {.mXVXmXmXCXmXmX3XW.B.W , M A B.$XS P ,.: O ",
"yXyXyXyXpXfXbXbXh.S 6 W c.|..X2Xd.+X1X+XwXxX0X0XcXdXdXcXBXcXdX8X).K.K.8X0X7.v E d.|.<X%X%X2X2X.X=X2X=X%XW.| n W F H y.P !.kX+.Y ",
"M._.;X&X_.;X:X>XfXd.m W c.[.z.4.L.1X-XOX0XdXwXeX0X-X-X8X0X0X,X).Q.E.Q.+XW.K v 8.z..X5X2X<X4X4X<X=XaX3X|.c.| D D I 9 S I _.$XU a.",
"i.;XpXuX;XiXiX:X$Xc.| E ! 4.4.| w.L.z.8.L.OX XOX-X-X*X*X,X*X^.E.Q.E.J.Q.j.m n u.z..X4X2X=X2X3X=X%XsX2Xd.6.W z , n 6 % G M.<.P g.",
" .C.uX$X$X:X;X~.&.7.#.N M ~ 3.9.z.v.8.9.W..X X X=X*X^.^.^.^.R.R.^.v.a.v.V.W n ! u.[.<X%X|.~. X~.%X3X X8.| F 9 8 A | A I >.I Y %.",
"{ i.C.B.!.=X Xj.x.d.( N ~ 5.5.~ z.c.8.9.v.W.h.h.B.j.h.h.h.j.j.j.W.h.7.u.l.T n | p.Z..X|.V.B.W.~. X Xc.u.u.W D W p.&XB.B.M.Y P ,.",
"..6.6.y.h.B.j.0.w.x.w._ ) 3.5.) 8.u.4.#.y.*.W Q *.*.*.*.,.i.g.g.y.u.6.| T 8 D c.u.l.Z.V.B.B.W. Xc.u.| 4.u.W H 6.&X&X&X:X_.S 4 g.",
"X.H A S S S K Q Q 8.n.t._ ) 5.n.c.V.u.y.u.6.{ &.&.&.&.&.&.&.%.&.F W T D z > c c.l.l.u.u.d.d.j.v.#.6.W W X.T D T Z.p.Z.h.m.I + %.",
"l.X.H F m y V $.w.9.8.t.n.t.r.r.3.9.3.W ! W F | 6.6.&.&.} I G G 9 8 , z D z z 3.Z.u.6.| #.#.#.#.&.z.6.F F H z 8 | | c.S ] ,.: d ",
"F E 6.W 2 y Q N B B B Z ~ ) r.XXr.` ) Z Z C b 1 M n 9 , % % - - 7 $ * F * , l.T | 6.| ! | | W | H &.6.| } S 7 7 J @.J t t : O : ",
"$ l 3.u.z.L.b.$.e e 1 2 1 Z _ ` ].].r.) b j 2 > > 2 v m i 6 = % - 9 < , . $ | 7 = W 6.6.| R W u.6.6.{ H H i a ] yXgXgXgXjX'.g @ ",
". W .X4X4X1X=X1Xw.x.( B B 9.8.~ ) Z C b j b b N ! 8.W.=X:X;X~.W.7.v.7.W < = F n F E y & $ # . & 9 v y 7 7 7 &.fXBXnXnXNXFXSXT.: ",
"v W.4X3X-XQ.K.0X0XeX@XL.L.}.{.w.) C b ~ n..X5X5X{..X3XsXgXfXsXaXaX4XOX=X.XQ K z.9.#.m 9 F W Q 4.6.z.B.*.7 O J gX*XJ.R.E.'.dX).h ",
"v.W.a.$.J.J.-.q.J.K.(.@X@XoXQ.L.! 2 $ b n.<X.X{.{. XOX XQ.J.J.j. X X X1XzXv.L x.7. X3X4X4X<X3XcXsXcXzX3Xy.y K *Xf.a.E.(.F.(.F.a ",
"f.a.@.^ ;.s.;.q.-.-.D.#XOXH.e.w.b.E 1 ! {.5X.Xb.v.W.OX+XOXQ.J.H.$.P.OXx.Q.J.B y Q.3X4X4XwX=X{. X=X.X~. X=Xv.a.W.J.E.#XOXJ.F.s.=.",
"1.$.;.:.=.:.K.).G.G.I.K.K.H.0./ #.M 9 W u.d.4.#.7.e.J.Q.oX(.(.(.e.P.@Xe.$.e.e = Q.}.x.v.=X<X{.W.b.d.#.9.J.v.$.7.Q.Q.J.j.D.0.;.F.",
"/.=.+.:.:.F.).G.G.K.G.-.D.(.D./ *.} | u.d.#.#.7.0.e.f.f.f.Y.H.I.K.f.OXH.0.$.B / #.L. X+X Xv.9.w.#.7.#.#.d.x.v.W.Q.Q.f.j.Q.0.L 0.",
"1.a.2.:.2.G.S.:.S.G.).).F.( ^ @. .&.&.&.&.&.@.*.7.e.f.H.H.H.I.K.K.0.Q.0.$.0.e $.$.v.}.P.z.w.7.4.b.#.J #.#.*.v.Q $.$.L J ;.;.L a.",
"+.Y g Y 1.T.T.2.T.T.T.F.s.=.^ / S I } &.y.d.d.a.( $.0.e.e.0.-.-.f.( f.L L $.K  X0.7.7.d.d.7.d.b.~.B.@.@.*.a.a.t @.@.U U =.L p a.",
"g ] %.+.+.=.2.F.s.s.:.=.^ U U J I H S I  .&.} K #.( ( / ( / ^ ^ $./ f.@.U J ; 7.7.Q #.v.W.u.8.c.$XiXj.*.j.R.1.: t p p U P ; O t ",
"+ u P d u h g +.Y +.^ J J K K S } S 0 S } &.} U 7.$.L V V V V V ; : S m S i % Q y.&.6.B.V.p.&.y.y.^.@.P 1.,.] ; t U U *.%.p :   ",
". + 4 d  .,.*.] a J U P S S S m 6 , 6 F 6.h.d.7.U L L / ( =.$.$.} S a - < = O 7 &.&.&.| | 6.6.p.} k.Y Y ,.%.<.g.;XkXyXyXaXyX!.7 ",
"+ 0  .m.C.!.!.M.u u p i 7 - - 9 * & 8 A H H n 9 % y @.W.,X0XhXhXnXkX$Xg.i.} 6 * - A { { { .. .I %.,.[ ] ] [ R.yX!.;X1.g.g.N.M.+ ",
"o q i.m.>.{ &.g.i % + % * . $ 8 n M n 9 , & & = i @.^.gXBXNXFXGXbXGXBXkXmXbX&X..6 6 0 A H A 0 q G [ d 4 + : <.g.`._.1.!.N.>.`.G ",
"o 5 { >...{  . .P +   . $ . * n | X.T z , 9 | c.~.:XzXnXgXaXaXfXkXGXbXuXkXbXpXm.m.A $ X X X * A ] <.[ 5   : 1.] g.m.1.yX`.[ !.>."
};
